<svg width="35" height="34" viewBox="0 0 35 34" fill="none" xmlns="http://www.w3.org/2000/svg">
<g clip-path="url(#clip0_800_870)">
<path d="M25.5557 4.60979C25.9985 5.03198 26.1267 5.73963 26.308 6.30704C26.3374 6.39828 26.3669 6.48952 26.3963 6.58075C26.4751 6.82477 26.5534 7.06892 26.6317 7.3131C26.714 7.56978 26.7967 7.82634 26.8794 8.08292C27.0737 8.6862 27.2673 9.28969 27.4608 9.89324C27.4867 9.97404 27.5126 10.0548 27.5393 10.1381C27.7348 10.7483 27.9302 11.3585 28.125 11.9689C28.3703 12.7372 28.6171 13.505 28.8652 14.2724C28.8949 14.3645 28.9247 14.4567 28.9545 14.5488C29.1294 15.0901 29.1294 15.0901 29.3046 15.6312C29.5916 16.5166 29.8764 17.4026 30.1523 18.2916C30.1858 18.3988 30.1858 18.3988 30.22 18.5081C30.6035 19.7525 30.5236 20.9434 29.9801 22.1244C29.613 22.8136 29.1111 23.4065 28.4569 23.8385C28.501 24.3676 28.6464 24.8703 28.7842 25.3809C28.8105 25.479 28.8367 25.577 28.8629 25.6751C28.9177 25.8797 28.9728 26.0843 29.028 26.2889C29.0986 26.5503 29.1685 26.8119 29.2381 27.0735C29.292 27.2757 29.3464 27.4778 29.4008 27.6799C29.4267 27.7763 29.4525 27.8727 29.4782 27.9692C29.5141 28.1041 29.5506 28.239 29.5873 28.3738C29.6079 28.4503 29.6285 28.5269 29.6497 28.6058C29.7752 28.9944 29.9045 29.2563 30.2498 29.4831C30.4204 29.5689 30.595 29.6414 30.772 29.7129C30.8744 29.7556 30.9768 29.7983 31.0793 29.8411C31.2391 29.907 31.3991 29.9727 31.5592 30.0381C32.9416 30.6054 32.9416 30.6054 33.1824 31.0059C33.2713 31.2252 33.296 31.4468 33.2381 31.6745C33.011 31.9926 32.8567 32.1255 32.4733 32.24C32.4304 32.2532 32.3875 32.2663 32.3433 32.2798C32.1993 32.3232 32.0548 32.3643 31.91 32.405C31.8589 32.4196 31.8079 32.4342 31.7553 32.4493C31.3491 32.5655 30.9414 32.6763 30.5334 32.786C30.4693 32.8033 30.4053 32.8206 30.3393 32.8384C30.0014 32.9296 29.6633 33.0204 29.3252 33.1109C28.9782 33.2039 28.6316 33.2981 28.285 33.3925C28.016 33.4656 27.7467 33.5378 27.4774 33.6097C27.3495 33.644 27.2218 33.6787 27.0941 33.7137C25.4445 34.165 25.4445 34.165 24.929 33.8866C24.7242 33.6341 24.6717 33.4846 24.6717 33.1562C24.785 32.4969 25.3165 31.961 25.7208 31.4543C26.3583 30.7243 26.3583 30.7243 26.5752 29.8345C26.5382 29.57 26.4776 29.3163 26.4077 29.0585C26.3954 29.0126 26.3831 28.9668 26.3704 28.9195C26.3301 28.7699 26.2894 28.6204 26.2486 28.4709C26.2204 28.3663 26.1922 28.2617 26.164 28.157C26.0902 27.883 26.016 27.609 25.9416 27.3351C25.8223 26.8954 25.7036 26.4555 25.585 26.0156C25.5435 25.862 25.5018 25.7084 25.46 25.5549C25.4347 25.4613 25.4094 25.3677 25.3841 25.2741C25.3619 25.1922 25.3397 25.1104 25.3168 25.026C25.2694 24.8346 25.2694 24.8346 25.2694 24.7018C25.2282 24.7009 25.187 24.6999 25.1446 24.699C23.9482 24.6345 22.8626 24.0737 22.0416 23.2131C21.2804 22.349 21.0395 21.321 20.8067 20.2231C20.766 20.0317 20.7239 19.8407 20.6818 19.6496C20.6554 19.5272 20.6292 19.4047 20.603 19.2822C20.5904 19.2255 20.5779 19.1689 20.5649 19.1105C20.4944 18.7715 20.4318 18.4477 20.6334 18.1401C20.8088 18.0251 20.9431 18.0032 21.1522 17.9948C21.3546 18.0776 21.4552 18.1351 21.5526 18.333C21.6347 18.5791 21.6852 18.8284 21.7345 19.0825C21.7568 19.1928 21.779 19.303 21.8013 19.4133C21.8357 19.5853 21.8699 19.7573 21.9035 19.9295C22.1373 21.1213 22.4476 22.2273 23.4764 22.9753C24.4284 23.5501 25.4785 23.7432 26.5736 23.5247C26.7668 23.4637 26.9456 23.3936 27.1287 23.3073C27.1807 23.2832 27.2327 23.2592 27.2862 23.2344C28.2736 22.7296 28.8875 21.9442 29.2371 20.9009C29.3928 20.3096 29.3676 19.7131 29.2065 19.1271C29.1947 19.0842 29.1829 19.0413 29.1707 18.9971C29.0351 18.5108 28.8801 18.0308 28.7235 17.551C28.6926 17.4556 28.6617 17.3603 28.6309 17.2649C28.5507 17.0176 28.4703 16.7703 28.3898 16.5231C28.3073 16.2694 28.225 16.0156 28.1427 15.7618C27.9821 15.2664 27.8212 14.7712 27.66 14.276C27.6045 14.2746 27.549 14.2732 27.4918 14.2717C27.2811 14.2661 27.0704 14.2601 26.8597 14.2538C26.7256 14.25 26.5914 14.2465 26.4573 14.2431C24.3681 14.1797 22.2241 13.7023 20.3553 12.7487C20.3645 12.7902 20.3736 12.8318 20.383 12.8746C20.4783 13.3075 20.573 13.7406 20.6674 14.1738C20.7027 14.3354 20.7381 14.4969 20.7737 14.6584C20.8248 14.8907 20.8755 15.1232 20.926 15.3557C20.942 15.4277 20.9579 15.4997 20.9744 15.5739C21.1535 16.404 21.1535 16.404 20.9862 16.7248C20.785 16.8958 20.6773 16.905 20.4217 16.91C20.205 16.838 20.1472 16.7269 20.0233 16.5339C19.9395 16.275 19.8862 16.0108 19.8313 15.7445C19.8139 15.6639 19.7965 15.5833 19.7786 15.5003C19.7309 15.2785 19.684 15.0566 19.6375 14.8346C19.5882 14.6002 19.538 14.366 19.4878 14.1318C19.424 13.8336 19.3603 13.5354 19.297 13.2371C19.1458 12.5247 18.9908 11.8132 18.8338 11.102C18.7597 10.7663 18.6861 10.4305 18.6124 10.0948C18.5526 9.8224 18.4926 9.55008 18.4321 9.27787C18.3749 9.02028 18.3184 8.76255 18.2624 8.5047C18.2417 8.40997 18.2208 8.31529 18.1995 8.22068C17.9228 6.9843 17.9228 6.9843 18.1182 6.48162C18.6368 5.97509 19.6391 5.86615 20.3268 5.68163C20.4523 5.64777 20.5779 5.61391 20.7035 5.58004C20.9654 5.50948 21.2274 5.4392 21.4894 5.36908C21.8242 5.27946 22.1586 5.18885 22.493 5.09799C22.7518 5.02786 23.0107 4.95842 23.2697 4.88916C23.393 4.85604 23.5164 4.82268 23.6396 4.78907C23.8121 4.74211 23.9848 4.6961 24.1576 4.65032C24.2077 4.63646 24.2578 4.62259 24.3094 4.60831C24.7314 4.49828 25.1473 4.43253 25.5557 4.60979ZM24.3688 5.70883C24.3162 5.72287 24.2636 5.7369 24.2094 5.75137C24.0346 5.79807 23.8598 5.84489 23.685 5.89174C23.5638 5.92418 23.4426 5.95662 23.3214 5.98905C23.0668 6.05721 22.8122 6.12544 22.5577 6.19371C22.2316 6.28115 21.9055 6.36831 21.5794 6.45541C21.3288 6.52238 21.0783 6.58954 20.8277 6.65674C20.7076 6.68895 20.5874 6.72109 20.4671 6.75317C20.2987 6.79811 20.1304 6.84331 19.9621 6.88858C19.9125 6.90176 19.8629 6.91495 19.8118 6.92853C19.5652 6.99515 19.3283 7.06946 19.0936 7.17058C19.2018 7.69548 19.3109 8.22021 19.4209 8.74473C19.472 8.98829 19.5228 9.2319 19.573 9.47565C19.6214 9.71088 19.6706 9.94595 19.7203 10.1809C19.7391 10.2706 19.7576 10.3603 19.7759 10.4501C19.8016 10.5758 19.8283 10.7014 19.855 10.8269C19.8699 10.8984 19.8848 10.9699 19.9001 11.0436C20.0217 11.4246 20.3606 11.5517 20.6971 11.7304C22.7662 12.7894 25.0255 13.1994 27.328 13.1471C27.1862 12.6054 27.0225 12.0728 26.8491 11.5404C26.8079 11.4131 26.7667 11.2858 26.7255 11.1585C26.6821 11.0246 26.6387 10.8908 26.5952 10.7569C26.4603 10.3415 26.3259 9.92587 26.1916 9.51026C26.1616 9.41759 26.1316 9.32493 26.1017 9.23227C25.8269 8.3827 25.5552 7.53218 25.286 6.68083C25.2585 6.594 25.2585 6.594 25.2305 6.50541C25.1326 6.19593 25.0349 5.88641 24.9373 5.57683C24.7507 5.57683 24.5496 5.66035 24.3688 5.70883ZM26.7843 24.5358C26.7121 24.5543 26.6399 24.5728 26.5656 24.5918C26.5104 24.6062 26.4552 24.6206 26.3983 24.6354C26.4373 25.0966 26.5539 25.5264 26.6787 25.9712C26.7166 26.1061 26.7538 26.2412 26.7909 26.3763C26.8965 26.76 27.0028 27.1436 27.1099 27.5269C27.1757 27.7624 27.2407 27.9982 27.3052 28.234C27.3297 28.3229 27.3544 28.4117 27.3795 28.5004C27.5985 29.2752 27.8317 30.1173 27.4608 30.8776C27.1406 31.4081 26.7529 31.8925 26.3621 32.3722C26.1889 32.5635 26.1889 32.5635 26.1326 32.8034C26.8742 32.633 27.6107 32.4492 28.3451 32.2504C28.4432 32.2239 28.5413 32.1975 28.6395 32.1711C28.8935 32.1027 29.1476 32.0341 29.4016 31.9654C29.6624 31.8949 29.9234 31.8247 30.1843 31.7544C30.6932 31.6173 31.202 31.4799 31.7108 31.3425C31.5096 31.1867 31.3262 31.0845 31.0892 30.9902C30.9863 30.9485 30.9863 30.9485 30.8812 30.9059C30.7381 30.8487 30.5949 30.7917 30.4516 30.7347C29.8093 30.4741 29.1778 30.2015 28.8558 29.5486C28.65 29.0396 28.5103 28.5149 28.371 27.9848C28.3448 27.8863 28.3185 27.7878 28.2922 27.6893C28.2237 27.4323 28.1556 27.1751 28.0876 26.9179C27.9783 26.5044 27.8682 26.0911 27.7582 25.6778C27.7199 25.5337 27.6818 25.3895 27.6437 25.2454C27.6204 25.1576 27.5971 25.0698 27.5738 24.982C27.5535 24.9052 27.5332 24.8285 27.5123 24.7494C27.468 24.5732 27.468 24.5732 27.3944 24.4362C27.1742 24.4362 26.9973 24.4808 26.7843 24.5358Z" fill="black"/>
<path d="M11 2.93944C11.0571 2.95468 11.1142 2.96991 11.173 2.98561C11.3598 3.03559 11.5465 3.08621 11.7331 3.13688C11.8638 3.17206 11.9945 3.20722 12.1252 3.24236C12.3983 3.31587 12.6713 3.3897 12.9442 3.46375C13.2935 3.5585 13.643 3.65246 13.9926 3.74619C14.2622 3.81858 14.5317 3.89137 14.8011 3.96428C14.93 3.99909 15.0588 4.03377 15.1877 4.06832C15.3679 4.11668 15.5479 4.16559 15.7278 4.21465C15.8072 4.23577 15.8072 4.23577 15.8881 4.25732C16.6833 4.47598 16.6833 4.47598 16.9038 4.84736C17.0629 5.32465 16.9238 5.79139 16.819 6.26807C16.803 6.3431 16.7869 6.41812 16.7703 6.49542C16.7169 6.74365 16.6629 6.99172 16.6088 7.2398C16.5712 7.41418 16.5336 7.58858 16.496 7.76298C16.4069 8.17656 16.3173 8.59003 16.2275 9.00346C16.1173 9.51097 16.0077 10.0186 15.8982 10.5263C15.7834 11.0581 15.6685 11.5899 15.5527 12.1215C15.5161 12.2898 15.4794 12.4581 15.4428 12.6265C15.4253 12.7068 15.4078 12.7872 15.3898 12.8701C15.2886 13.3358 15.1898 13.802 15.0934 14.2688C15.0623 14.4178 15.0311 14.5668 14.9998 14.7158C14.9731 14.8446 14.9475 14.9736 14.9219 15.1026C14.9065 15.1762 14.891 15.2498 14.875 15.3257C14.8626 15.3871 14.8502 15.4485 14.8374 15.5118C14.7658 15.707 14.6713 15.8043 14.5131 15.9372C14.3292 15.9893 14.1677 15.9794 13.9819 15.9372C13.8117 15.8127 13.8117 15.8127 13.7163 15.6052C13.7095 15.0679 13.8627 14.5254 13.978 14.0047C13.9973 13.9163 14.0165 13.8279 14.0358 13.7395C14.086 13.5091 14.1366 13.2788 14.1874 13.0485C14.2393 12.8126 14.2908 12.5766 14.3423 12.3406C14.4431 11.8792 14.5444 11.418 14.6459 10.9567C14.5488 10.9968 14.5488 10.9968 14.4496 11.0376C13.9842 11.2278 13.5244 11.4117 13.0356 11.5336C12.9575 11.5536 12.9575 11.5536 12.8777 11.574C11.7444 11.854 10.5996 11.9652 9.43367 11.9615C9.30039 11.9611 9.16712 11.9615 9.03384 11.9619C8.51027 11.9614 7.99499 11.9381 7.47407 11.8864C7.4566 11.9599 7.4566 11.9599 7.43877 12.0348C7.32457 12.5044 7.19164 12.963 7.03932 13.4215C7.01712 13.4892 6.99492 13.5568 6.97205 13.6265C6.9017 13.8407 6.83097 14.0547 6.7602 14.2687C6.66775 14.5494 6.57543 14.8301 6.48316 15.1108C6.4606 15.1794 6.43804 15.248 6.41479 15.3188C6.25822 15.7957 6.103 16.2731 5.94984 16.7512C5.93034 16.8117 5.91084 16.8721 5.89075 16.9344C5.87282 16.9906 5.85489 17.0469 5.83642 17.1048C5.82078 17.1536 5.80514 17.2025 5.78902 17.2528C5.51755 18.2031 5.6411 19.184 6.11767 20.0438C6.7526 21.0043 7.58765 21.5547 8.69973 21.8199C9.68676 21.9806 10.7016 21.7468 11.5249 21.1833C12.5786 20.3853 12.8473 19.309 13.0994 18.066C13.1153 17.9922 13.1312 17.9185 13.1477 17.8425C13.1681 17.743 13.1681 17.743 13.1889 17.6416C13.2625 17.4331 13.3443 17.3354 13.517 17.1989C13.7816 17.1611 13.9191 17.1543 14.1396 17.311C14.2985 17.537 14.3235 17.7155 14.2912 17.9891C14.2694 18.0939 14.2694 18.0939 14.2472 18.2007C14.2311 18.2785 14.215 18.3563 14.1984 18.4364C14.1804 18.5183 14.1623 18.6003 14.1437 18.6848C14.1253 18.7686 14.1069 18.8525 14.0879 18.9388C13.8674 19.9081 13.575 20.6829 12.9194 21.4489C12.8655 21.514 12.8655 21.514 12.8104 21.5804C12.1149 22.348 11.1314 22.7223 10.1476 22.9475C10.0698 22.9654 9.99194 22.9832 9.91176 23.0016C9.82272 23.0219 9.82272 23.0219 9.73188 23.0427C9.57383 23.6145 9.41675 24.1865 9.26089 24.7589C9.18849 25.0247 9.11575 25.2904 9.04225 25.5559C8.97128 25.8123 8.9012 26.069 8.83171 26.3258C8.80509 26.4235 8.77816 26.5212 8.75092 26.6188C8.71269 26.7559 8.6756 26.8932 8.63876 27.0307C8.61737 27.1087 8.59599 27.1867 8.57396 27.2671C8.51543 27.619 8.56285 27.9225 8.72822 28.2378C8.75394 28.2876 8.77967 28.3375 8.80618 28.3889C8.83405 28.4413 8.86193 28.4937 8.89065 28.5476C8.9194 28.6031 8.94816 28.6585 8.97779 28.7155C9.06941 28.8918 9.16195 29.0676 9.25459 29.2434C9.34633 29.4187 9.43787 29.5942 9.52925 29.7697C9.58599 29.8786 9.64296 29.9873 9.70022 30.0959C10.2895 31.2207 10.2895 31.2207 10.2631 31.7419C10.1587 31.9948 10.0254 32.1258 9.79829 32.2731C9.22348 32.3991 8.59213 32.1511 8.0406 31.999C7.93404 31.9702 7.82746 31.9416 7.72086 31.913C7.44054 31.8376 7.1605 31.7612 6.88051 31.6846C6.60166 31.6084 6.32256 31.5332 6.04348 31.458C5.71747 31.37 5.3915 31.2819 5.06579 31.1928C4.58717 31.0619 4.10845 30.9324 3.62769 30.8096C3.5485 30.7892 3.46932 30.7687 3.38773 30.7476C3.24455 30.7108 3.1012 30.6746 2.95763 30.6394C2.48441 30.5167 2.04336 30.3693 1.76313 29.9489C1.72349 29.689 1.70756 29.5219 1.83213 29.2882C2.16123 28.8722 2.6217 28.6052 3.06379 28.3247C3.24671 28.2079 3.42829 28.0892 3.6098 27.9702C3.87317 27.7976 4.1366 27.6251 4.40045 27.4532C4.48996 27.3942 4.48996 27.3942 4.58128 27.3339C4.75141 27.2263 4.75141 27.2263 4.9078 27.1448C5.16901 27.0066 5.30624 26.9008 5.40821 26.6182C5.44042 26.5005 5.47033 26.3821 5.49848 26.2634C5.51582 26.1975 5.53315 26.1317 5.55101 26.0638C5.59226 25.9067 5.63265 25.7494 5.67241 25.5919C5.76205 25.2399 5.8595 24.8901 5.95606 24.5399C6.01189 24.3361 6.06759 24.1322 6.12321 23.9283C6.16049 23.7917 6.19789 23.6552 6.23541 23.5187C6.28857 23.3245 6.34084 23.1302 6.39289 22.9358C6.40919 22.8769 6.42549 22.8179 6.44228 22.7572C6.45676 22.7025 6.47123 22.6478 6.48615 22.5914C6.49905 22.5437 6.51195 22.496 6.52524 22.4469C6.54728 22.2918 6.53184 22.1932 6.47798 22.0466C6.34509 21.9266 6.34509 21.9266 6.17915 21.8142C5.30125 21.1369 4.699 20.024 4.55219 18.9255C4.53811 18.7165 4.53386 18.5082 4.53144 18.2988C4.52952 18.2456 4.52759 18.1924 4.52561 18.1376C4.51425 17.0172 5.04584 15.8744 5.38808 14.8232C5.46295 14.593 5.53752 14.3627 5.6121 14.1324C5.64243 14.0388 5.67275 13.9452 5.70308 13.8515C5.7181 13.8051 5.73313 13.7587 5.74862 13.7109C5.79422 13.5701 5.83987 13.4293 5.88552 13.2885C6.15162 12.4677 6.41482 11.646 6.67719 10.8239C7.13729 9.38335 7.6012 7.94402 8.06589 6.50492C8.09232 6.42302 8.11874 6.34112 8.14597 6.25673C8.19829 6.09482 8.25074 5.93294 8.30333 5.77111C8.42391 5.3994 8.54314 5.02743 8.6572 4.65367C8.6969 4.52373 8.73701 4.39393 8.77724 4.26415C8.82731 4.10215 8.87656 3.9399 8.92486 3.77736C9.07173 3.30548 9.186 3.02643 9.61567 2.76386C10.0704 2.66052 10.56 2.81913 11 2.93944ZM10.0639 3.85126C9.58192 5.27773 9.11245 6.70831 8.64822 8.14064C8.58771 8.32728 8.52703 8.51386 8.4662 8.7004C8.39338 8.92373 8.32095 9.14718 8.2488 9.37072C8.20897 9.49382 8.16877 9.6168 8.12857 9.73977C8.01226 10.1014 7.9073 10.4449 7.87251 10.8239C8.34971 10.8993 8.81817 10.9064 9.30024 10.9069C9.36848 10.907 9.36848 10.907 9.4381 10.9071C10.9971 10.9056 12.5479 10.69 13.9895 10.0763C14.1147 10.027 14.1147 10.027 14.359 9.95882C14.6349 9.86093 14.7789 9.77913 14.978 9.5622C15.1802 9.10179 15.2458 8.59269 15.3292 8.10023C15.3789 7.81305 15.4403 7.52879 15.503 7.24421C15.5139 7.19464 15.5247 7.14507 15.536 7.09401C15.5578 6.99463 15.5796 6.89525 15.6015 6.79588C15.6531 6.56039 15.7038 6.32472 15.7536 6.08884C15.7705 6.00941 15.7875 5.92999 15.8049 5.84815C15.849 5.63517 15.849 5.63517 15.8413 5.37861C14.416 4.98869 12.9906 4.59941 11.5638 4.21521C11.4438 4.18287 11.3238 4.15048 11.2038 4.11803C11.0368 4.07287 10.8697 4.02792 10.7026 3.98304C10.653 3.96959 10.6034 3.95614 10.5523 3.94228C10.3115 3.87476 10.3115 3.87476 10.0639 3.85126ZM7.60688 22.6442C7.44231 23.1137 7.31216 23.5882 7.18768 24.0697C7.12752 24.3018 7.06618 24.5335 7.00508 24.7653C6.92783 25.0587 6.85092 25.3521 6.77518 25.6458C6.71351 25.8849 6.65072 26.1236 6.58719 26.3622C6.56333 26.4527 6.53987 26.5432 6.51684 26.6339C6.48459 26.7606 6.45079 26.8869 6.41692 27.0132C6.3982 27.085 6.37949 27.1568 6.3602 27.2307C6.19338 27.6296 5.85308 27.8309 5.49433 28.0439C4.99456 28.348 4.50708 28.6689 4.02094 28.9943C3.94914 29.0424 3.87734 29.0904 3.80336 29.1399C3.63231 29.2545 3.46135 29.3692 3.29048 29.4841C3.34864 29.6393 3.34864 29.6393 3.54992 29.6824C3.63718 29.7061 3.72459 29.7292 3.81213 29.7518C3.85975 29.7645 3.90738 29.7773 3.95645 29.7904C4.11478 29.8327 4.2733 29.8742 4.43183 29.9157C4.54198 29.9449 4.65212 29.9742 4.76224 30.0035C4.99373 30.065 5.2253 30.1262 5.45695 30.187C5.75261 30.2647 6.04813 30.343 6.34359 30.4215C6.62629 30.4966 6.90906 30.5714 7.19184 30.6462C7.2453 30.6603 7.29875 30.6745 7.35383 30.6891C7.87895 30.8279 8.40328 30.9661 8.93501 31.0778C8.85508 30.9061 8.77478 30.7346 8.69428 30.5632C8.66866 30.5082 8.64303 30.4533 8.61663 30.3967C8.44879 30.0404 8.27237 29.6898 8.08833 29.3417C8.02388 29.2183 7.95957 29.0948 7.89529 28.9713C7.85276 28.8904 7.80966 28.8099 7.76597 28.7297C7.7037 28.6152 7.64359 28.4996 7.58354 28.384C7.54804 28.3176 7.51255 28.2512 7.47598 28.1828C7.29171 27.5731 7.56284 26.911 7.7275 26.3197C7.75277 26.2273 7.77799 26.1349 7.80315 26.0426C7.86896 25.8014 7.93537 25.5603 8.00195 25.3193C8.10886 24.9321 8.21501 24.5447 8.32087 24.1571C8.35786 24.0222 8.39519 23.8873 8.43256 23.7525C8.46614 23.6301 8.46614 23.6301 8.5004 23.5052C8.53018 23.3974 8.53018 23.3974 8.56056 23.2874C8.61066 23.1073 8.61066 23.1073 8.60298 22.9099C8.27426 22.8222 7.94555 22.7345 7.60688 22.6442Z" fill="black"/>
<path d="M15.7733 1.26267C15.9692 1.39804 16.1347 1.5613 16.3046 1.72751C16.3378 1.75979 16.371 1.79206 16.4051 1.82531C17.1569 2.55837 17.1569 2.55837 17.1886 2.84397C17.1622 3.11404 17.1091 3.21189 16.9023 3.38767C16.6776 3.43701 16.5859 3.45077 16.371 3.38767C16.1354 3.22 15.9353 3.02563 15.7351 2.8174C15.6406 2.71953 15.5437 2.62462 15.4462 2.52971C14.9828 2.05938 14.9828 2.05938 14.9531 1.74867C14.9779 1.51483 15.0081 1.42405 15.1757 1.26267C15.424 1.17991 15.5217 1.18672 15.7733 1.26267Z" fill="black"/>
<path d="M21.4199 1.26147C21.5957 1.37282 21.6161 1.45082 21.6772 1.65161C21.6892 1.95171 21.5572 2.11102 21.3622 2.33143C21.2941 2.39913 21.2941 2.39913 21.2246 2.4682C21.1749 2.51776 21.1252 2.56732 21.074 2.61839C21.0224 2.66915 20.9708 2.71991 20.9177 2.77221C20.8659 2.824 20.814 2.87579 20.7606 2.92915C20.3075 3.3788 20.3075 3.3788 20.0005 3.40722C19.7598 3.38647 19.7598 3.38647 19.5979 3.28686C19.4832 3.10343 19.4451 2.96229 19.4496 2.74559C19.5519 2.38737 19.8858 2.14307 20.1499 1.89648C20.2121 1.83609 20.2744 1.7757 20.3385 1.71348C20.9175 1.1557 20.9175 1.1557 21.4199 1.26147Z" fill="black"/>
<path d="M18.164 -0.0429688C18.2298 -0.0407859 18.2298 -0.0407859 18.2968 -0.038559C18.3407 -0.0386446 18.3845 -0.0387302 18.4296 -0.0388184C18.6258 0.0167331 18.7018 0.105126 18.8281 0.26442C18.8614 0.479332 18.8614 0.479332 18.861 0.731339C18.8611 0.776025 18.8612 0.820712 18.8613 0.866753C18.8612 0.960969 18.8604 1.05519 18.8591 1.14939C18.8571 1.29327 18.8577 1.43699 18.8586 1.58087C18.8581 1.67261 18.8576 1.76435 18.8569 1.85609C18.8562 1.93926 18.8556 2.02242 18.8549 2.1081C18.8264 2.33664 18.7932 2.4302 18.6289 2.58864C18.4047 2.65504 18.4047 2.65504 18.164 2.65504C17.978 2.53774 17.8642 2.4538 17.7656 2.25661C17.7485 1.98529 17.7476 1.71386 17.746 1.44204C17.7448 1.30734 17.7419 1.17275 17.739 1.03808C17.7382 0.910253 17.7382 0.910253 17.7373 0.779846C17.7363 0.701751 17.7354 0.623655 17.7344 0.543193C17.7747 0.268515 17.8856 0.0445936 18.164 -0.0429688Z" fill="black"/>
<path d="M10.5942 17.3987C10.756 17.5024 10.756 17.5024 10.8598 17.6643C10.9075 17.9559 10.8917 18.0812 10.727 18.3283C10.525 18.463 10.4821 18.4838 10.2538 18.4695C10.0569 18.4293 10.0044 18.4029 9.85954 18.2536C9.77828 18.0045 9.79378 17.8496 9.86369 17.5979C10.0681 17.3541 10.2909 17.3608 10.5942 17.3987Z" fill="black"/>
<path d="M8.53467 15.1404C8.72282 15.2572 8.7358 15.3466 8.79614 15.5638C8.80029 15.8045 8.80029 15.8045 8.70483 15.9996C8.49989 16.1645 8.38706 16.1823 8.13 16.164C8.00342 16.1365 8.00342 16.1365 7.8374 16.0328C7.70004 15.8096 7.70558 15.6638 7.73779 15.4061C7.9326 15.0536 8.16448 15.0479 8.53467 15.1404Z" fill="black"/>
<path d="M26.6398 18.4609C26.9565 18.5548 26.9565 18.5548 27.0632 18.7266C27.1371 18.9694 27.1508 19.0795 27.0424 19.3118C26.9304 19.457 26.9304 19.457 26.7975 19.5234C26.5428 19.547 26.3894 19.5598 26.1708 19.4197C26.0252 19.1925 26.0252 19.058 26.0671 18.793C26.2454 18.5335 26.321 18.4609 26.6398 18.4609Z" fill="black"/>
<path d="M24.0078 15.6039C24.1105 15.8092 24.0937 15.9754 24.0742 16.2016C23.9746 16.3634 23.9746 16.3634 23.8086 16.4672C23.6221 16.5077 23.4635 16.5106 23.2773 16.4672C23.1072 16.3302 23.1072 16.3302 23.0117 16.1352C23.0158 15.8992 23.0286 15.7411 23.1653 15.5458C23.4838 15.3334 23.6756 15.4347 24.0078 15.6039Z" fill="black"/>
<path d="M11.7229 13.7474C11.8792 13.8516 11.9139 13.9249 11.9802 14.1002C11.9914 14.3402 11.9135 14.4747 11.7893 14.6771C11.584 14.7797 11.4178 14.763 11.1916 14.7435C11.0298 14.6439 11.0298 14.6439 10.926 14.4778C10.8855 14.2913 10.8826 14.1328 10.926 13.9466C11.1674 13.6467 11.3639 13.6477 11.7229 13.7474Z" fill="black"/>
<path d="M24.8695 20.9199C25.0314 21.0195 25.0314 21.0195 25.1351 21.1855C25.1765 21.4192 25.183 21.6343 25.0604 21.8454C24.881 21.9471 24.7437 21.9741 24.5375 21.9824C24.3829 21.9068 24.2607 21.8384 24.139 21.7167C24.1005 21.2471 24.1005 21.2471 24.2428 21.0195C24.4677 20.8811 24.6101 20.8828 24.8695 20.9199Z" fill="black"/>
</g>
<defs>
<clipPath id="clip0_800_870">
<rect width="34" height="34" fill="white" transform="translate(0.5)"/>
</clipPath>
</defs>
</svg>
