<svg width="90" height="90" viewBox="0 0 90 90" fill="none" xmlns="http://www.w3.org/2000/svg">
<rect x="0.5" y="0.5" width="89" height="89" rx="44.5" fill="#C8F7FD"/>
<rect x="0.5" y="0.5" width="89" height="89" rx="44.5" stroke="#D3D3D3"/>
<g clip-path="url(#clip0_1047_3921)">
<path d="M64.6129 25.2237C64.8497 25.4483 65.008 25.6563 65.0772 25.9795C65.0967 26.8248 64.8113 27.6038 64.5644 28.4018C64.5136 28.5693 64.4629 28.7369 64.4123 28.9046C64.3035 29.2646 64.1938 29.6243 64.0835 29.9839C63.9068 30.5599 63.7319 31.1363 63.5573 31.7129C63.3749 32.3149 63.1924 32.9168 63.0092 33.5185C62.6049 34.8463 62.2034 36.175 61.805 37.5046C61.7787 37.5923 61.7524 37.68 61.7253 37.7704C61.5932 38.2115 61.4611 38.6526 61.3291 39.0937C61.0886 39.8967 60.8477 40.6996 60.6067 41.5025C60.4724 41.9502 60.3381 42.398 60.2037 42.8458C60.15 43.0248 60.0963 43.2038 60.0426 43.3829C60.016 43.4715 59.9894 43.5601 59.962 43.6514C59.8815 43.92 59.8009 44.1885 59.7203 44.4571C59.6937 44.5457 59.6672 44.6343 59.6398 44.7256C59.5861 44.9047 59.5324 45.0837 59.4787 45.2627C59.3443 45.7106 59.2099 46.1585 59.0755 46.6065C58.835 47.4081 58.5945 48.2098 58.354 49.0115C58.2212 49.4538 58.0885 49.8961 57.9558 50.3384C57.9163 50.4701 57.9163 50.4701 57.876 50.6044C57.4912 51.8869 57.1068 53.1695 56.7227 54.4522C56.5302 55.095 56.3375 55.7378 56.1449 56.3806C55.9762 56.9436 55.8076 57.5066 55.6392 58.0696C55.5347 58.4185 55.4302 58.7673 55.3256 59.1162C55.2777 59.276 55.2298 59.4358 55.1821 59.5957C54.9374 60.4139 54.6891 61.2309 54.4326 62.0454C54.4104 62.1166 54.3882 62.1878 54.3653 62.2611C54.053 63.2451 53.5928 64.058 52.6888 64.6142C51.6841 65.1335 50.5403 65.3041 49.442 64.9649C48.4715 64.5775 47.7068 63.8969 47.2527 62.9539C47.069 62.46 47.018 61.9535 46.9589 61.4323C46.9169 61.0679 46.8673 60.7045 46.8179 60.341C46.8074 60.2637 46.797 60.1864 46.7862 60.1067C46.56 58.4678 46.2375 56.8449 45.8873 55.2286C45.8682 55.1401 45.8492 55.0515 45.8295 54.9603C44.8522 50.3131 44.8522 50.3131 41.9775 46.7319C39.861 45.3828 37.3271 44.7653 34.901 44.2422C34.8123 44.223 34.7235 44.2038 34.6321 44.184C33.0273 43.8388 31.4156 43.5319 29.7885 43.3117C29.6748 43.2962 29.6748 43.2962 29.5588 43.2804C29.2059 43.2331 28.8531 43.1883 28.4994 43.1482C27.4817 43.0264 26.5906 42.7547 25.9005 41.9433C25.1119 40.9325 24.9037 39.9406 25.0377 38.6856C25.22 37.7386 25.7852 36.8907 26.571 36.3292C26.9799 36.0605 27.3826 35.904 27.8493 35.7629C27.9318 35.7372 28.0144 35.7116 28.0994 35.6851C28.4066 35.5902 28.7143 35.4971 29.0221 35.4043C29.1505 35.3655 29.2789 35.3267 29.4073 35.2879C30.4429 34.975 31.4796 34.6659 32.5164 34.357C32.9782 34.2193 33.4399 34.0815 33.9016 33.9436C33.9956 33.9155 34.0896 33.8875 34.1864 33.8586C34.3781 33.8013 34.5699 33.744 34.7616 33.6868C35.0534 33.5997 35.3452 33.5125 35.637 33.4254C37.5579 32.852 39.4782 32.2762 41.3982 31.6998C41.8425 31.5665 42.2867 31.4332 42.731 31.2999C43.2678 31.1388 43.8046 30.9777 44.3413 30.8165C45.5502 30.4537 46.7591 30.0911 47.968 29.7286C52.4211 28.3939 52.4211 28.3939 56.8726 27.0538C57.2134 26.951 57.5543 26.8484 57.8952 26.7458C58.7105 26.5005 59.5253 26.2537 60.3386 26.0017C60.704 25.8886 61.0696 25.7765 61.4352 25.6644C61.6036 25.6126 61.7718 25.5602 61.9399 25.5073C63.9061 24.8889 63.9061 24.8889 64.6129 25.2237ZM58.4372 29.1009C58.3696 29.1213 58.302 29.1417 58.2324 29.1628C58.0054 29.2316 57.7787 29.3014 57.5521 29.3713C57.39 29.4207 57.2278 29.4699 57.0657 29.5191C56.7157 29.6254 56.3659 29.7322 56.0162 29.8393C55.4559 30.011 54.8952 30.1816 54.3345 30.3519C54.1423 30.4103 53.95 30.4687 53.7577 30.5271C53.6617 30.5563 53.5656 30.5855 53.4666 30.6155C53.1709 30.7054 52.8752 30.7954 52.5794 30.8854C50.6933 31.4593 48.8047 32.0247 46.9155 32.5885C46.2236 32.795 45.5317 33.0018 44.8398 33.2085C44.6654 33.2606 44.4911 33.3127 44.3167 33.3648C42.9522 33.7725 41.588 34.1809 40.2239 34.5898C40.0849 34.6315 40.0849 34.6315 39.9431 34.674C38.9336 34.9766 37.9242 35.2796 36.9149 35.5831C36.5639 35.6886 36.213 35.7941 35.862 35.8996C35.7767 35.9253 35.6914 35.9509 35.6036 35.9773C34.4996 36.3092 33.3947 36.6379 32.2888 36.9634C31.8835 37.0828 31.4783 37.203 31.0732 37.3232C30.7068 37.4318 30.34 37.5392 29.9729 37.6457C29.7529 37.7098 29.5333 37.7751 29.3137 37.8407C29.1677 37.8839 29.0213 37.9257 28.8749 37.9675C28.3194 38.135 27.8255 38.3182 27.5256 38.8438C27.3887 39.1639 27.4196 39.5175 27.4596 39.8575C27.6499 40.2452 27.9167 40.5409 28.3253 40.7034C28.5304 40.7691 28.7365 40.8285 28.9441 40.8862C29.0633 40.9206 29.0633 40.9206 29.1849 40.9556C29.4517 41.0322 29.7187 41.1075 29.9858 41.1828C30.1771 41.2375 30.3684 41.2923 30.5596 41.3471C30.9735 41.4656 31.3875 41.5837 31.8016 41.7013C32.4715 41.8917 33.1406 42.0845 33.8098 42.2776C34.8656 42.5821 35.9218 42.8851 36.9784 43.1871C37.5845 43.3603 38.1906 43.534 38.7964 43.7084C39.3378 43.8643 39.8794 44.0196 40.4212 44.1741C40.7045 44.2549 40.9876 44.336 41.2706 44.4178C41.5815 44.5077 41.8927 44.5962 42.204 44.6846C42.296 44.7114 42.3879 44.7382 42.4826 44.7658C42.6092 44.8014 42.6092 44.8014 42.7383 44.8377C42.8113 44.8586 42.8843 44.8796 42.9595 44.9011C43.1904 44.9403 43.3286 44.9215 43.5533 44.8575C43.7091 44.7477 43.7091 44.7477 43.8491 44.6002C43.9051 44.5448 43.9611 44.4894 44.0189 44.4323C44.0794 44.3708 44.14 44.3093 44.2024 44.246C44.3 44.1487 44.3 44.1487 44.3997 44.0495C44.5802 43.8695 44.76 43.6887 44.9395 43.5076C45.1332 43.3125 45.3279 43.1183 45.5224 42.924C45.8594 42.5872 46.1958 42.2499 46.5317 41.9121C47.0175 41.4238 47.5041 40.9364 47.991 40.4491C48.7808 39.6586 49.57 38.8674 50.3587 38.0757C51.1249 37.3067 51.8914 36.5379 52.6583 35.7697C52.7292 35.6986 52.7292 35.6986 52.8016 35.6262C53.0387 35.3886 53.2758 35.1511 53.513 34.9136C55.4806 32.9427 57.447 30.9708 59.4127 28.9981C59.0574 28.8863 58.7818 28.9933 58.4372 29.1009ZM61.1315 30.7168C59.0977 32.7345 57.0659 34.754 55.0365 36.776C54.797 37.0146 54.5575 37.2532 54.3179 37.4917C54.2703 37.5392 54.2226 37.5867 54.1735 37.6357C53.4009 38.4052 52.6271 39.1734 51.8529 39.9411C51.0588 40.7287 50.2659 41.5177 49.4743 42.3078C48.9857 42.7955 48.496 43.2822 48.005 43.7675C47.6685 44.1002 47.3334 44.4342 46.9993 44.7692C46.8063 44.9626 46.6129 45.1554 46.4178 45.3467C46.2068 45.5542 45.998 45.7639 45.7896 45.9741C45.7274 46.0343 45.6651 46.0945 45.601 46.1565C45.3085 46.4425 45.3085 46.4425 45.1694 46.8135C45.1863 46.9783 45.2223 47.1215 45.2721 47.2793C45.2964 47.3788 45.3207 47.4782 45.3457 47.5807C45.3757 47.6873 45.4062 47.7937 45.4371 47.9C45.4539 47.9593 45.4707 48.0185 45.488 48.0795C45.544 48.2763 45.6007 48.473 45.6573 48.6696C45.6978 48.8113 45.7382 48.9531 45.7786 49.0948C45.8881 49.4786 45.9982 49.8622 46.1084 50.2458C46.2238 50.6476 46.3387 51.0496 46.4537 51.4516C46.6469 52.1264 46.8404 52.8011 47.0342 53.4758C47.2581 54.2554 47.4813 55.0353 47.7042 55.8152C47.8958 56.4854 48.0877 57.1554 48.2799 57.8254C48.3946 58.2253 48.5092 58.6253 48.6235 59.0254C48.7309 59.4014 48.8388 59.7773 48.9471 60.153C48.9867 60.2909 49.0262 60.4288 49.0655 60.5667C49.1192 60.7551 49.1734 60.9434 49.2279 61.1316C49.2432 61.1861 49.2586 61.2405 49.2745 61.2966C49.4451 61.8817 49.6339 62.233 50.1158 62.5918C50.4243 62.7461 50.7952 62.7042 51.1315 62.67C51.5102 62.4841 51.806 62.2189 51.9736 61.8231C52.033 61.6482 52.0863 61.4723 52.138 61.295C52.1585 61.2274 52.179 61.1598 52.2001 61.0901C52.2683 60.864 52.3353 60.6376 52.4022 60.4111C52.4508 60.249 52.4995 60.087 52.5483 59.925C52.6808 59.4843 52.8121 59.0432 52.9433 58.602C53.0828 58.1336 53.2233 57.6655 53.3637 57.1973C53.6277 56.3165 53.8908 55.4355 54.1536 54.5543C54.4239 53.6477 54.6951 52.7414 54.9665 51.8351C55.3786 50.459 55.7902 49.0828 56.2013 47.7064C56.8003 45.7012 57.4007 43.6965 58.002 41.6921C58.1662 41.1447 58.3304 40.5972 58.4944 40.0498C58.9843 38.4151 59.475 36.7806 59.9729 35.1483C60.0365 34.9395 60.1001 34.7306 60.1636 34.5217C60.1839 34.4552 60.2041 34.3887 60.2249 34.3201C60.2647 34.1893 60.3045 34.0585 60.3443 33.9277C60.4566 33.5583 60.5697 33.1892 60.6834 32.8203C60.7512 32.5997 60.8183 32.3789 60.8853 32.1581C60.9304 32.0102 60.9763 31.8626 61.0222 31.7149C61.0484 31.6282 61.0746 31.5414 61.1016 31.452C61.1245 31.3773 61.1475 31.3026 61.1711 31.2256C61.2116 31.0192 61.1885 30.9149 61.1315 30.7168Z" fill="black"/>
</g>
<defs>
<clipPath id="clip0_1047_3921">
<rect width="40" height="40" fill="white" transform="translate(25 25)"/>
</clipPath>
</defs>
</svg>
