<svg width="104" height="104" viewBox="0 0 104 104" fill="none" xmlns="http://www.w3.org/2000/svg">
<g clip-path="url(#clip0_800_5612)">
<path d="M27.9031 8.47961C28.198 8.47899 28.4929 8.4782 28.7878 8.47725C29.5946 8.47517 30.4014 8.4756 31.2082 8.47647C32.0797 8.47698 32.9512 8.47514 33.8227 8.47362C35.5286 8.47104 37.2346 8.47067 38.9406 8.47115C40.3275 8.47151 41.7144 8.47115 43.1014 8.47029C43.2989 8.47017 43.4965 8.47005 43.7 8.46992C44.1013 8.46967 44.5027 8.46943 44.904 8.46918C48.6661 8.46697 52.4282 8.46741 56.1902 8.46865C59.63 8.4697 63.0698 8.46741 66.5096 8.46355C70.0438 8.45961 73.578 8.45794 77.1122 8.4587C79.0955 8.45909 81.0787 8.45859 83.062 8.45571C84.7504 8.45329 86.4387 8.45301 88.1271 8.45547C88.988 8.45666 89.8489 8.45689 90.7098 8.45445C91.4989 8.45224 92.288 8.45288 93.0772 8.45572C93.3616 8.45626 93.646 8.45578 93.9305 8.45415C96.9575 8.438 99.5058 9.06269 101.781 11.1422C103.548 13.1217 104.061 15.1521 104.054 17.7154C104.055 17.9431 104.056 18.1709 104.057 18.4055C104.059 19.1679 104.059 19.9302 104.059 20.6925C104.06 21.2394 104.061 21.7863 104.063 22.3332C104.066 23.6642 104.067 24.9953 104.067 26.3263C104.068 27.4087 104.068 28.4911 104.07 29.5734C104.073 32.6448 104.075 35.7162 104.075 38.7876C104.075 38.9531 104.075 39.1186 104.075 39.289C104.075 39.4547 104.075 39.6204 104.075 39.791C104.075 42.4749 104.078 45.1588 104.084 47.8427C104.09 50.601 104.093 53.3594 104.092 56.1178C104.092 57.6654 104.093 59.2129 104.098 60.7605C104.102 62.0783 104.102 63.396 104.1 64.7138C104.098 65.3855 104.099 66.0571 104.102 66.7288C104.105 67.4588 104.103 68.1885 104.1 68.9184C104.102 69.1283 104.104 69.3382 104.106 69.5544C104.086 71.7401 103.409 73.5183 101.968 75.1576C101.866 75.2806 101.765 75.4037 101.66 75.5305C100.545 76.7723 98.9395 77.677 97.2964 78.0013C96.8848 78.0203 96.4727 78.0279 96.0606 78.0286C95.6782 78.0299 95.6782 78.0299 95.288 78.0313C95.0046 78.0313 94.7211 78.0313 94.4376 78.0312C94.1369 78.0319 93.8362 78.0326 93.5354 78.0335C92.7078 78.0355 91.8802 78.0363 91.0526 78.0368C90.1605 78.0376 89.2683 78.0395 88.3762 78.0413C86.221 78.0453 84.0658 78.0474 81.9106 78.0492C80.8955 78.0501 79.8805 78.0512 78.8655 78.0522C75.4912 78.0557 72.1168 78.0586 68.7425 78.0601C67.8668 78.0605 66.9911 78.0609 66.1155 78.0613C65.8978 78.0614 65.6802 78.0615 65.456 78.0616C61.9307 78.0633 58.4055 78.0684 54.8803 78.075C51.2607 78.0817 47.6412 78.0854 44.0216 78.086C41.9895 78.0865 39.9574 78.0882 37.9253 78.0934C36.1945 78.0978 34.4638 78.0995 32.733 78.0975C31.8503 78.0966 30.9676 78.097 30.0849 78.1009C29.2758 78.1045 28.4668 78.1043 27.6577 78.1011C27.366 78.1006 27.0742 78.1015 26.7825 78.1039C23.982 78.1257 21.7632 77.4748 19.6701 75.571C18.2179 74.0698 17.2417 72.0504 17.2385 69.9379C17.2377 69.7458 17.2369 69.5537 17.2361 69.3558C17.2364 69.0401 17.2364 69.0401 17.2366 68.7181C17.236 68.4941 17.2354 68.27 17.2348 68.0392C17.233 67.2857 17.2327 66.5323 17.2324 65.7788C17.2315 65.2397 17.2305 64.7005 17.2294 64.1614C17.2266 62.6945 17.2254 61.2277 17.2245 59.7609C17.2239 58.8446 17.2231 57.9284 17.2222 57.0121C17.2197 54.4743 17.2176 51.9366 17.2169 49.3988C17.2169 49.2364 17.2168 49.074 17.2168 48.9066C17.2167 48.7438 17.2167 48.581 17.2166 48.4133C17.2165 48.0834 17.2164 47.7535 17.2164 47.4237C17.2163 47.26 17.2163 47.0964 17.2162 46.9278C17.2154 44.2779 17.2119 41.628 17.2071 38.9781C17.2023 36.2563 17.1998 33.5344 17.1996 30.8126C17.1994 29.2848 17.1982 27.7572 17.1945 26.2294C17.1914 24.9282 17.1904 23.627 17.192 22.3258C17.1928 21.6623 17.1923 20.999 17.1898 20.3355C17.1872 19.6149 17.1884 18.8943 17.1905 18.1737C17.1889 17.9659 17.1872 17.7582 17.1855 17.5442C17.2032 14.9651 18.0871 12.8248 19.8296 10.9193C22.126 8.75026 24.8975 8.4707 27.9031 8.47961ZM23.1812 14.1439C23.0351 14.2722 22.889 14.4005 22.7384 14.5327C21.7268 15.8125 21.6457 17.1537 21.6606 18.7191C21.6601 18.9213 21.6596 19.1234 21.659 19.3316C21.658 20.0059 21.6614 20.6801 21.6647 21.3544C21.6649 21.839 21.6648 22.3235 21.6645 22.808C21.6643 23.9853 21.6669 25.1625 21.6708 26.3397C21.6752 27.7101 21.6761 29.0805 21.6768 30.4509C21.6781 32.8946 21.6822 35.3383 21.6879 37.782C21.6935 40.1551 21.6978 42.5282 21.7004 44.9013C21.7006 45.0477 21.7007 45.1941 21.7009 45.3449C21.7017 46.0794 21.7025 46.8139 21.7032 47.5484C21.7095 53.6369 21.7203 59.7253 21.7339 65.8138C22.8411 64.878 22.8411 64.8781 23.8915 63.8797C24.0187 63.7519 24.1459 63.6241 24.2769 63.4924C24.4111 63.3566 24.5452 63.2208 24.6834 63.0808C24.829 62.9343 24.9745 62.7878 25.1244 62.6369C25.4383 62.3209 25.7519 62.0047 26.0654 61.6883C26.5629 61.1863 27.0612 60.6852 27.5597 60.1843C28.9765 58.7607 30.3924 57.3363 31.8062 55.9098C32.6731 55.0352 33.5416 54.1621 34.411 53.29C34.7404 52.9589 35.0692 52.6273 35.3975 52.2951C40.1467 47.49 40.1467 47.49 43.3286 47.4564C47.1574 47.528 49.326 50.5151 51.8258 53.0658C52.1473 53.3934 52.4701 53.7198 52.793 54.0461C52.8912 54.147 52.9893 54.2479 53.0905 54.3518C53.3286 54.5917 53.5773 54.8211 53.8277 55.0482C53.9617 55.0482 54.0958 55.0482 54.2339 55.0482C54.5132 54.7419 54.777 54.4215 55.0337 54.096C55.1968 53.8921 55.36 53.6881 55.528 53.4779C55.6149 53.3692 55.7018 53.2604 55.7914 53.1484C56.2443 52.5885 56.7121 52.0415 57.1792 51.4935C57.8645 50.6874 58.5425 49.8766 59.2105 49.056C59.9718 48.1207 60.7481 47.1994 61.5289 46.2805C62.1177 45.5865 62.6984 44.8868 63.273 44.181C64.0343 43.2457 64.8106 42.3244 65.5914 41.4055C66.1802 40.7115 66.7609 40.0119 67.3355 39.306C68.2023 38.2415 69.0852 37.1917 69.9769 36.148C70.2679 35.8038 70.5554 35.4564 70.8322 35.1007C71.7141 33.977 72.9187 33.1636 74.3433 32.9076C76.7055 32.6974 78.505 32.9141 80.4323 34.4453C81.3145 35.2792 82.0497 36.265 82.8095 37.2089C83.2571 37.7537 83.7196 38.2774 84.1948 38.7982C84.9909 39.6716 85.7369 40.5774 86.48 41.4959C86.9238 42.0322 87.3822 42.5494 87.8511 43.0638C88.6471 43.9372 89.3932 44.843 90.1362 45.7616C90.5801 46.2979 91.0385 46.815 91.5073 47.3294C92.3034 48.2029 93.0494 49.1087 93.7925 50.0272C94.2363 50.5635 94.6947 51.0806 95.1636 51.5951C95.9654 52.4751 96.7197 53.3865 97.4694 54.3111C98.3695 55.4159 98.3695 55.4159 99.3277 56.4701C99.3947 56.4701 99.4617 56.4701 99.5308 56.4701C99.545 51.2772 99.5558 46.0844 99.5623 40.8916C99.5655 38.4804 99.5698 36.0693 99.5768 33.6582C99.5828 31.5567 99.5868 29.4552 99.5881 27.3537C99.5889 26.241 99.5908 25.1283 99.5952 24.0155C99.5993 22.968 99.6006 21.9205 99.5997 20.873C99.5999 20.4887 99.6011 20.1044 99.6034 19.7202C99.6065 19.1949 99.6057 18.6698 99.6041 18.1446C99.6058 17.993 99.6076 17.8415 99.6094 17.6853C99.5971 16.2396 99.1421 15.0502 98.1089 14.0169C96.8634 13.2398 95.7286 12.9762 94.2635 12.9752C94.0206 12.9745 93.7777 12.9739 93.5275 12.9732C93.1283 12.9737 93.1283 12.9737 92.7211 12.9741C92.435 12.9738 92.1489 12.9733 91.8628 12.9728C91.0766 12.9715 90.2903 12.9715 89.5041 12.9718C88.6561 12.9718 87.8082 12.9707 86.9602 12.9697C85.2988 12.968 83.6374 12.9675 81.976 12.9674C80.6254 12.9673 79.2749 12.9669 77.9243 12.9662C74.0954 12.9644 70.2664 12.9635 66.4374 12.9636C66.231 12.9637 66.0245 12.9637 65.8118 12.9637C65.6051 12.9637 65.3984 12.9637 65.1855 12.9637C61.836 12.9638 58.4865 12.9618 55.137 12.959C51.6979 12.9561 48.2588 12.9546 44.8196 12.9548C42.8888 12.9549 40.9579 12.9543 39.0271 12.9521C37.383 12.9503 35.7389 12.9499 34.0948 12.9512C33.2562 12.9519 32.4176 12.9519 31.579 12.9501C30.8106 12.9486 30.0423 12.9488 29.274 12.9506C28.8656 12.9511 28.4573 12.9495 28.049 12.9479C25.4224 12.9288 25.4224 12.9288 23.1812 14.1439ZM73.0611 39.2171C72.9647 39.3337 72.8683 39.4502 72.7691 39.5702C72.4796 39.9209 72.1925 40.2734 71.9058 40.6263C71.75 40.8167 71.5942 41.007 71.4337 41.2032C71.1378 41.5649 70.8424 41.927 70.5474 42.2894C69.9307 43.0395 69.302 43.7791 68.6732 44.519C68.0845 45.213 67.5037 45.9127 66.9292 46.6185C66.1679 47.5538 65.3916 48.4751 64.6107 49.394C64.022 50.088 63.4412 50.7877 62.8667 51.4935C62.1054 52.4288 61.3291 53.3501 60.5482 54.269C59.9595 54.963 59.3787 55.6627 58.8042 56.3685C58.1068 57.2233 57.4051 58.0744 56.6968 58.9203C56.6024 59.0342 56.508 59.1481 56.4108 59.2654C55.4138 60.4507 55.4138 60.4507 54.6441 60.6222C53.9512 60.6602 53.4165 60.6658 52.8271 60.2697C52.703 60.1543 52.5788 60.0388 52.4509 59.9199C52.3107 59.7905 52.1705 59.661 52.026 59.5277C51.3067 58.8345 50.596 58.1342 49.8937 57.4238C49.7392 57.2685 49.5846 57.1132 49.4254 56.9532C48.9372 56.4626 48.4497 55.9713 47.9624 55.4798C47.3161 54.8281 46.6691 54.177 46.0216 53.5263C45.8733 53.3763 45.725 53.2263 45.5722 53.0718C45.4351 52.9341 45.2981 52.7963 45.1569 52.6544C45.0364 52.5329 44.9159 52.4113 44.7917 52.2861C44.3365 51.865 44.0663 51.7964 43.4429 51.6966C42.6171 51.8032 42.4912 51.8695 41.9117 52.3993C41.7695 52.5292 41.6273 52.659 41.4808 52.7927C40.6913 53.5425 39.9177 54.3067 39.1495 55.0783C38.969 55.2588 38.7884 55.4393 38.6024 55.6252C38.1124 56.1154 37.6228 56.606 37.1335 57.0968C36.6201 57.6114 36.1062 58.1254 35.5923 58.6396C34.6215 59.611 33.6512 60.5829 32.6811 61.5551C31.5757 62.6627 30.4698 63.7698 29.3638 64.8768C27.0907 67.1521 24.8183 69.428 22.5464 71.7044C23.1795 72.654 23.9067 73.185 24.9839 73.5326C25.9469 73.6494 26.9066 73.6425 27.8751 73.6357C28.1694 73.6367 28.4637 73.638 28.7581 73.6396C29.5642 73.643 30.3702 73.6413 31.1763 73.6388C32.0467 73.6369 32.9171 73.6398 33.7875 73.642C35.4915 73.6456 37.1955 73.6448 38.8996 73.6425C40.2846 73.6406 41.6696 73.6404 43.0546 73.6413C43.2518 73.6414 43.449 73.6415 43.6521 73.6417C44.0527 73.6419 44.4533 73.6422 44.8539 73.6425C48.6095 73.6448 52.365 73.6421 56.1206 73.6377C59.3424 73.6341 62.5643 73.6348 65.7861 73.6385C69.5284 73.6428 73.2705 73.6446 77.0128 73.6421C77.4119 73.6418 77.811 73.6415 78.2101 73.6413C78.4065 73.6412 78.6028 73.641 78.8051 73.6409C80.1883 73.6402 81.5715 73.6414 82.9548 73.6433C84.6406 73.6456 86.3264 73.645 88.0123 73.6406C88.8723 73.6385 89.7323 73.6377 90.5923 73.6404C91.3799 73.6428 92.1675 73.6414 92.9551 73.6371C93.2396 73.6362 93.5242 73.6367 93.8088 73.6386C95.5971 73.6501 96.916 73.5742 98.3168 72.3654C98.4074 72.252 98.498 72.1386 98.5913 72.0218C98.6851 71.909 98.7788 71.7961 98.8754 71.6798C100.219 69.6217 99.9006 65.9448 99.5308 63.5794C99.0666 62.3938 98.2225 61.6364 97.2541 60.8458C96.6497 60.3256 96.1636 59.7125 95.6587 59.098C95.458 58.8624 95.2567 58.6273 95.0549 58.3926C94.9556 58.2766 94.8563 58.1606 94.7541 58.041C94.2477 57.4493 93.7408 56.8582 93.2339 56.2669C93.0308 56.03 92.8277 55.793 92.6245 55.556C92.524 55.4387 92.4234 55.3214 92.3198 55.2005C81.6558 42.7591 81.6558 42.7591 81.3507 42.4031C81.149 42.1679 80.9472 41.9327 80.7453 41.6976C80.2146 41.0795 79.6863 40.4596 79.1611 39.8368C79.0517 39.7076 78.9422 39.5784 78.8295 39.4453C78.6204 39.1983 78.4119 38.9508 78.2042 38.7026C77.2871 37.5828 77.2871 37.5828 75.9937 37.0843C74.6704 37.2696 73.8648 38.2224 73.0611 39.2171Z" fill="black"/>
<path d="M12.6823 42.6565C13.4237 44.0798 12.9525 45.7687 12.5414 47.2433C12.4924 47.427 12.4435 47.6106 12.393 47.7998C12.2311 48.4045 12.0656 49.0082 11.9 49.6119C11.7844 50.0406 11.6691 50.4693 11.5539 50.8981C11.3099 51.8049 11.0643 52.7112 10.8175 53.6172C10.4346 55.0227 10.0555 56.4293 9.67687 57.8359C8.66904 61.5771 7.65395 65.3162 6.62662 69.052C6.39292 69.9028 6.1606 70.7539 5.92795 71.6049C5.75567 72.2312 5.58033 72.8565 5.40465 73.4818C5.30327 73.8503 5.202 74.2189 5.10085 74.5876C5.05606 74.743 5.01127 74.8984 4.96512 75.0585C4.53607 76.6456 4.42937 78.155 5.18734 79.6482C6.34846 81.1477 7.82192 81.4446 9.59261 81.908C9.88338 81.9866 10.1741 82.0654 10.4647 82.1446C11.226 82.351 11.9882 82.5536 12.7507 82.7553C13.4658 82.945 14.18 83.1381 14.8943 83.331C16.4994 83.7635 18.1061 84.1901 19.713 84.6161C21.0473 84.9701 22.3813 85.3254 23.7153 85.6804C24.2378 85.8195 24.7603 85.9584 25.2828 86.0974C28.893 87.058 32.5011 88.0262 36.1091 88.9953C37.6751 89.4159 39.2411 89.8363 40.8072 90.2567C41.0685 90.3269 41.0685 90.3269 41.3351 90.3985C43.9029 91.0877 46.4711 91.7752 49.0396 92.4614C49.6074 92.6131 50.1751 92.7648 50.7429 92.9165C52.4203 93.3647 54.0978 93.8128 55.7755 94.2601C59.1253 95.1534 62.4741 96.0494 65.8155 96.9735C66.2473 97.0929 66.6792 97.2119 67.1112 97.3308C67.3878 97.407 67.6645 97.4832 67.9411 97.5594C68.0746 97.5962 68.2081 97.6329 68.3456 97.6708C69.2299 97.9146 70.1131 98.1623 70.9962 98.4106C71.4444 98.5344 71.8926 98.6581 72.3408 98.7817C72.5369 98.8379 72.733 98.8941 72.9351 98.9521C74.6362 99.4157 76.2046 99.6324 77.8196 98.8126C78.845 98.0186 79.3426 97.159 79.6993 95.9284C79.7397 95.7913 79.7801 95.6542 79.8217 95.5129C79.9635 95.0254 80.0993 94.5366 80.2341 94.0471C80.2879 93.8526 80.3418 93.6581 80.3973 93.4577C80.8973 91.6446 81.3871 89.8288 81.8727 88.0118C82.0577 87.3204 82.2447 86.6296 82.432 85.9388C82.4878 85.7276 82.5437 85.5164 82.6013 85.2989C83.2171 83.0377 83.2171 83.0377 84.03 82.4055C84.7399 82.1944 85.4 82.1254 86.1247 82.2658C86.7383 82.6208 87.2249 83.0443 87.5466 83.6877C87.6844 85.2537 87.2392 86.6583 86.8198 88.1549C86.7442 88.43 86.6687 88.7052 86.5934 88.9804C86.4355 89.5554 86.2762 90.13 86.1159 90.7044C85.912 91.4349 85.711 92.1662 85.5109 92.8978C85.3553 93.4658 85.1985 94.0335 85.0414 94.6011C84.9669 94.8703 84.8927 95.1397 84.8189 95.4091C83.6337 99.7211 83.6337 99.7211 82.3796 101.03C82.229 101.19 82.0785 101.351 81.9234 101.517C81.2195 102.193 80.518 102.785 79.6374 103.213C79.5099 103.276 79.3824 103.34 79.251 103.405C76.163 104.734 72.8694 103.919 69.766 103.046C69.3896 102.945 69.013 102.843 68.6364 102.742C67.6284 102.47 66.622 102.193 65.6159 101.914C64.5479 101.619 63.4783 101.33 62.4089 101.041C60.6567 100.566 58.9053 100.089 57.1544 99.6089C54.8954 98.9904 52.6342 98.3804 50.3715 97.7756C50.1198 97.7082 50.1198 97.7082 49.8629 97.6395C49.1914 97.46 48.5198 97.2804 47.8483 97.101C46.1638 96.6508 44.48 96.1984 42.7962 95.7458C39.11 94.755 35.4231 93.7667 31.736 92.7792C29.6166 92.2116 27.4973 91.6436 25.3782 91.0747C24.5605 90.8552 23.7428 90.6357 22.9251 90.4162C22.7259 90.3628 22.5267 90.3093 22.3215 90.2542C19.9508 89.6179 17.5793 88.985 15.2061 88.3578C14.1416 88.0765 13.0774 87.7937 12.0134 87.5103C11.3302 87.3285 10.6468 87.1476 9.96274 86.9689C9.23098 86.7774 8.50005 86.583 7.76925 86.3879C7.56139 86.3343 7.35354 86.2808 7.13938 86.2257C4.66558 85.5572 2.53064 84.283 1.1423 82.0754C0.958052 81.7361 0.779797 81.3934 0.609094 81.0471C0.505405 80.8456 0.505405 80.8456 0.399622 80.64C-0.725309 77.9788 0.0797025 74.7558 0.83761 72.1096C0.933955 71.7596 1.02979 71.4096 1.12519 71.0594C1.35219 70.2279 1.58165 69.3971 1.81207 68.5666C2.32122 66.7233 2.81318 64.8754 3.30605 63.0277C3.50078 62.2982 3.69556 61.5688 3.89034 60.8393C3.96371 60.5645 3.96371 60.5645 4.03856 60.2841C4.78555 57.4867 5.53471 54.6898 6.29283 51.8953C6.57274 50.8618 6.84793 49.8272 7.12002 48.7916C7.29942 48.1111 7.48161 47.4314 7.66438 46.7518C7.74969 46.4322 7.8338 46.1122 7.91661 45.7918C8.0308 45.3508 8.14923 44.9111 8.26868 44.4714C8.33432 44.2229 8.39996 43.9744 8.46759 43.7183C8.77401 42.9645 9.13283 42.5704 9.74972 42.0471C10.8147 41.6267 11.819 41.9481 12.6823 42.6565Z" fill="black"/>
<path d="M44.9217 23.7005C46.5558 25.1653 47.6275 27.3421 47.7829 29.5245C47.838 32.2856 47.2034 34.5397 45.297 36.595C43.188 38.6136 40.9215 39.103 38.0987 39.0571C35.7819 38.9615 33.8304 37.7692 32.2462 36.1316C30.4312 33.9979 30.1173 31.5359 30.2657 28.8445C30.6266 26.6086 31.9428 24.5433 33.7188 23.157C37.443 20.8707 41.4408 20.9904 44.9217 23.7005ZM35.6866 27.7019C34.8528 28.7469 34.5989 29.746 34.7345 31.0789C35.1965 32.6613 36.0426 33.575 37.4386 34.4051C38.7943 34.7204 40.0478 34.6908 41.271 33.9901C42.2946 33.2411 43.0041 32.3345 43.2657 31.0789C43.3697 29.9563 43.2434 28.9977 42.6563 28.032C41.7893 27.102 40.9886 26.2726 39.6761 26.1555C37.8769 26.1121 36.9327 26.3542 35.6866 27.7019Z" fill="black"/>
</g>
<defs>
<clipPath id="clip0_800_5612">
<rect width="104" height="104" fill="white"/>
</clipPath>
</defs>
</svg>
