<svg width="25" height="20" viewBox="0 0 25 20" fill="none" xmlns="http://www.w3.org/2000/svg">
<g clip-path="url(#clip0_151_654)">
<path d="M5.48331 0.450067C5.51007 0.446382 5.53683 0.44266 5.56357 0.438905C5.63694 0.428818 5.71038 0.419583 5.78389 0.410602C5.83108 0.404813 5.87825 0.398855 5.92541 0.392862C6.78593 0.284201 7.65033 0.221394 8.5166 0.179658C8.57928 0.176613 8.64196 0.173454 8.70463 0.170277C10.839 0.0635571 12.5886 0.206255 14.2267 1.66568C14.702 2.09176 15.1401 2.55086 15.5679 3.02297C15.5956 3.05341 15.6232 3.08384 15.6509 3.11428C15.842 3.32482 16.0311 3.5371 16.2185 3.75087C16.2304 3.76447 16.2424 3.77807 16.2547 3.79208C16.7501 4.35702 17.1998 4.95196 17.6616 5.54547C17.6674 3.88062 17.6731 2.21577 17.6789 0.500468C19.7554 0.500468 19.7554 0.500468 19.963 0.688587C20.0143 0.733074 20.0143 0.733074 20.0658 0.777369C20.1099 0.815655 20.1533 0.854715 20.1966 0.893807C20.2622 0.952949 20.3284 1.01129 20.3954 1.0689C20.4654 1.12947 20.5343 1.19125 20.6032 1.25294C20.6183 1.26633 20.6333 1.27971 20.6488 1.2935C20.7784 1.40967 20.9034 1.52984 21.0269 1.65232C21.0588 1.6839 21.0907 1.71538 21.1227 1.74686C21.2243 1.84729 21.3234 1.94838 21.4165 2.05672C21.4445 2.08709 21.4726 2.11739 21.5009 2.14758C21.586 2.23996 21.6659 2.33569 21.7453 2.43296C21.7627 2.454 21.7802 2.47502 21.7977 2.49602C22.0714 2.8252 22.3236 3.17026 22.5585 3.52747C22.5666 3.53967 22.5746 3.55187 22.5829 3.56445C22.7212 3.77577 22.85 3.99165 22.9738 4.21154C22.9828 4.22734 22.9917 4.24314 23.0009 4.25941C23.7219 5.53735 24.1949 6.95131 24.1505 12.8479C24.1477 12.859 24.145 12.8702 24.1422 12.8817C23.9437 13.6876 23.6445 14.4594 23.2853 15.2079C23.2732 15.2332 23.2732 15.2332 23.2608 15.259C23.1475 15.4933 23.0186 15.7185 22.8873 15.9433C22.873 15.9681 22.8586 15.993 22.8443 16.0178C22.7581 16.1658 22.6665 16.3102 22.5737 16.4542C22.5623 16.4719 22.5509 16.4896 22.5392 16.5078C22.4632 16.625 22.3826 16.7377 22.299 16.8497C22.2803 16.8754 22.2616 16.9012 22.243 16.927C22.0833 17.1476 21.9169 17.3604 21.7386 17.5666C21.697 17.6148 21.6567 17.6639 21.6166 17.7133C21.5349 17.8125 21.4472 17.9055 21.3588 17.9988C21.3382 18.0209 21.3179 18.0433 21.2977 18.0658C21.1883 18.1881 21.0727 18.3037 20.9557 18.419C20.9222 18.452 20.8888 18.4851 20.8554 18.5182C20.7512 18.6213 20.6465 18.7221 20.534 18.8164C20.4991 18.8475 20.4647 18.879 20.4302 18.9105C20.3617 18.9728 20.2926 19.0343 20.2223 19.0946C20.1367 19.1685 20.0527 19.2443 19.9685 19.3198C19.9535 19.3332 19.9385 19.3466 19.923 19.3604C19.9095 19.3726 19.896 19.3847 19.8821 19.3971C19.8688 19.4087 19.8556 19.4202 19.8419 19.4321C19.8291 19.4436 19.8163 19.4551 19.8031 19.467C19.7479 19.5057 19.7111 19.5137 19.6444 19.523C19.6218 19.5262 19.5992 19.5295 19.576 19.5328C19.5509 19.5361 19.5259 19.5394 19.5008 19.5426C19.4741 19.5463 19.4474 19.55 19.4207 19.5536C19.3316 19.5657 19.2423 19.5771 19.1531 19.5883C19.1297 19.5913 19.1297 19.5913 19.1059 19.5943C18.2282 19.7056 17.3473 19.7729 16.4636 19.8169C16.4008 19.82 16.3381 19.8233 16.2753 19.8265C14.1401 19.9355 12.3878 19.7961 10.7488 18.3355C10.2736 17.9094 9.83563 17.4501 9.40786 16.978C9.3802 16.9475 9.35254 16.9171 9.32488 16.8867C9.13376 16.6761 8.94473 16.4638 8.7573 16.2501C8.74535 16.2365 8.73341 16.2229 8.72111 16.2088C8.22564 15.6439 7.77594 15.049 7.31413 14.4555C7.30842 16.1203 7.30271 17.7852 7.29683 19.5005C5.22041 19.5005 5.22041 19.5005 4.96085 19.261C4.90809 19.2149 4.90809 19.2149 4.85494 19.1692C4.77034 19.0967 4.68787 19.0218 4.60478 18.9476C4.59024 18.9346 4.57569 18.9217 4.56071 18.9083C4.54782 18.8968 4.53492 18.8853 4.52164 18.8734C4.48462 18.8408 4.44734 18.8085 4.40991 18.7763C4.23533 18.6255 4.06848 18.4661 3.90426 18.3044C3.88636 18.2868 3.88636 18.2868 3.8681 18.2689C3.80072 18.2021 3.7366 18.1335 3.67426 18.0621C3.63209 18.0142 3.58807 17.9681 3.54413 17.9218C3.46649 17.8393 3.39276 17.7547 3.32141 17.6668C3.28736 17.6253 3.25242 17.5848 3.21703 17.5444C3.08023 17.3878 2.95644 17.2216 2.83252 17.0549C2.82237 17.0413 2.81223 17.0277 2.80177 17.0136C2.67457 16.8423 2.55141 16.6689 2.43454 16.4906C2.42681 16.4788 2.41909 16.4671 2.41113 16.455C2.15822 16.0699 1.9332 15.6696 1.72509 15.2592C1.71606 15.2415 1.70703 15.2237 1.69773 15.2054C1.00271 13.8278 0.609422 12.3051 0.493027 10.3434C0.492906 10.3171 0.492783 10.2908 0.492659 10.2646C0.492324 10.1812 0.492237 10.0978 0.492216 10.0144C0.492209 10.0002 0.492201 9.98596 0.492193 9.97133C0.492079 9.56643 0.493243 9.16381 0.544071 8.76142C0.548711 8.72432 0.5531 8.68721 0.557451 8.65008C0.719069 7.28337 1.11447 5.95962 1.7597 4.67329C1.76899 4.65485 1.77829 4.63641 1.78786 4.61741C2.05551 4.08966 2.35947 3.56896 2.7213 3.0982C2.74912 3.06162 2.77638 3.02466 2.80359 2.98763C2.92702 2.81986 3.05453 2.65661 3.18841 2.49687C3.22408 2.45413 3.25912 2.41089 3.29431 2.36776C3.35952 2.289 3.4279 2.21357 3.49776 2.13883C3.53249 2.10119 3.56655 2.06321 3.60036 2.02479C3.75264 1.8523 3.91384 1.68763 4.07729 1.5255C4.08914 1.51371 4.101 1.50192 4.11321 1.48977C4.18055 1.42341 4.24975 1.36027 4.32174 1.29887C4.37448 1.25348 4.42535 1.20616 4.47635 1.15888C4.55038 1.0906 4.62483 1.02313 4.7015 0.957738C4.74526 0.919929 4.78814 0.881221 4.83108 0.842502C4.89636 0.783664 4.96172 0.725032 5.02917 0.668616C5.06508 0.637968 5.06508 0.637968 5.09605 0.603489C5.20927 0.487565 5.32844 0.469093 5.48331 0.450067ZM7.10689 5.80786C7.08323 5.84575 7.05566 5.88011 7.02761 5.9149C7.01087 5.93773 6.99426 5.96067 6.9778 5.9837C6.96398 6.00288 6.96398 6.00288 6.94988 6.02244C6.57759 6.54343 6.27119 7.10009 6.05098 7.70029C6.0451 7.7162 6.03922 7.73211 6.03316 7.7485C5.77045 8.46794 5.64502 9.21944 5.64759 9.98337C5.64762 10.0029 5.64765 10.0224 5.64768 10.0425C5.6485 10.3424 5.65811 10.6357 5.70491 10.9325C5.70787 10.9519 5.71084 10.9714 5.7139 10.9914C5.89061 12.12 6.34175 13.2528 7.07953 14.1423C7.10899 14.1786 7.1315 14.2122 7.15523 14.253C7.20348 14.3279 7.2474 14.3894 7.33632 14.416C7.46014 14.436 7.58569 14.4316 7.71074 14.43C7.7536 14.4302 7.79646 14.4305 7.83932 14.4309C7.93245 14.4315 8.02555 14.4315 8.11868 14.4309C8.25716 14.4301 8.39562 14.4304 8.5341 14.4309C8.78143 14.4319 9.02875 14.4317 9.27608 14.431C9.49251 14.4303 9.70894 14.4301 9.92537 14.4303C9.94691 14.4303 9.94691 14.4303 9.96888 14.4303C10.0272 14.4304 10.0855 14.4304 10.1437 14.4305C10.6905 14.4309 11.2372 14.4302 11.7839 14.4289C12.2696 14.4278 12.7553 14.4277 13.241 14.4283C13.3654 14.4285 13.4898 14.4287 13.6141 14.4288C13.6295 14.4289 13.6448 14.4289 13.6605 14.4289C14.0664 14.4294 14.4723 14.4291 14.8782 14.4286C14.9219 14.4285 14.9655 14.4285 15.0092 14.4284C15.0382 14.4284 15.0672 14.4284 15.0961 14.4283C15.3124 14.428 15.5287 14.4282 15.745 14.4285C15.991 14.4289 16.2369 14.4286 16.4829 14.4276C16.6205 14.427 16.7581 14.4269 16.8958 14.4275C16.9985 14.4278 17.1012 14.4273 17.204 14.4264C17.2455 14.4262 17.2871 14.4263 17.3287 14.4267C17.5419 14.436 17.5419 14.436 17.7365 14.3674C17.7765 14.3244 17.8053 14.2836 17.8347 14.2331C17.8557 14.2064 17.877 14.1798 17.8988 14.1536C17.9193 14.1268 17.9398 14.0998 17.9601 14.0728C17.9712 14.0582 17.9822 14.0435 17.9936 14.0284C18.1848 13.7721 18.3524 13.5019 18.5095 13.2241C18.5194 13.207 18.5194 13.207 18.5295 13.1894C19.0375 12.3035 19.321 11.2323 19.3401 10.2142C19.3404 10.199 19.3408 10.1838 19.3412 10.1682C19.3621 9.14378 19.1561 8.11745 18.7163 7.188C18.6998 7.1529 18.6838 7.11763 18.6678 7.08229C18.463 6.63346 18.1849 6.20023 17.8693 5.8191C17.8547 5.80123 17.8401 5.78334 17.8256 5.76546C17.7514 5.65689 17.7514 5.65689 17.6474 5.5924C17.6281 5.59233 17.6281 5.59233 17.6083 5.59225C17.586 5.59205 17.586 5.59205 17.5631 5.59184C17.5466 5.59186 17.5301 5.59188 17.5131 5.5919C17.4956 5.59179 17.4781 5.59168 17.4601 5.59156C17.4007 5.59123 17.3414 5.59114 17.282 5.59105C17.2393 5.59087 17.1966 5.59067 17.1539 5.59045C17.0484 5.58997 16.9429 5.58964 16.8374 5.58939C16.7497 5.58917 16.6619 5.58888 16.5742 5.58853C16.5615 5.58848 16.5489 5.58843 16.5358 5.58838C16.51 5.58827 16.4843 5.58817 16.4585 5.58807C16.1241 5.58675 15.7897 5.5859 15.4553 5.58512C15.4119 5.58502 15.3686 5.58492 15.3253 5.58482C14.7743 5.58351 14.2233 5.58236 13.6724 5.58163C13.5323 5.58144 13.3921 5.58124 13.252 5.58105C13.2288 5.58101 13.2288 5.58101 13.2051 5.58098C12.7032 5.58027 12.2014 5.5787 11.6995 5.57664C11.1837 5.57454 10.6678 5.5732 10.152 5.57289C10.0791 5.57284 10.0062 5.57279 9.93337 5.57273C9.91186 5.57271 9.91186 5.57271 9.88991 5.5727C9.65913 5.5725 9.42836 5.57148 9.19758 5.57018C8.96556 5.56888 8.73355 5.56846 8.50152 5.56894C8.36369 5.56919 8.22589 5.56878 8.08806 5.56742C7.98509 5.56647 7.88215 5.56678 7.77918 5.56757C7.73756 5.56769 7.69594 5.56741 7.65432 5.56668C7.39663 5.56245 7.24723 5.5812 7.10689 5.80786Z" fill="white"/>
</g>
<defs>
<clipPath id="clip0_151_654">
<rect width="24" height="19" fill="white" transform="translate(0.5 0.5)"/>
</clipPath>
</defs>
</svg>
