<svg width="51" height="50" viewBox="0 0 51 50" fill="none" xmlns="http://www.w3.org/2000/svg">
<g clip-path="url(#clip0_526_436)">
<path d="M17.3731 2.01345C17.4956 2.01299 17.618 2.01254 17.7441 2.01207C18.0815 2.01085 18.4188 2.01144 18.7562 2.01235C19.121 2.01302 19.4858 2.01199 19.8506 2.01119C20.5644 2.00989 21.2781 2.01017 21.9918 2.01102C22.5722 2.01168 23.1526 2.01177 23.733 2.01145C23.8571 2.01138 23.8571 2.01138 23.9837 2.01131C24.1518 2.01122 24.3199 2.01112 24.488 2.01103C26.0629 2.01019 27.6379 2.01115 29.2128 2.01273C30.5626 2.01404 31.9123 2.01381 33.2621 2.01246C34.8313 2.01089 36.4004 2.01027 37.9696 2.01117C38.1371 2.01127 38.3047 2.01136 38.4722 2.01145C38.5546 2.01149 38.637 2.01154 38.7219 2.01159C39.3011 2.01184 39.8804 2.01141 40.4596 2.01072C41.1661 2.0099 41.8727 2.01013 42.5792 2.01168C42.9394 2.01245 43.2995 2.01276 43.6596 2.01179C44.0508 2.01074 44.4421 2.01199 44.8334 2.01345C44.9459 2.0128 45.0585 2.01214 45.1745 2.01147C46.6574 2.02214 48.0424 2.45827 49.1302 3.4968C49.7614 4.17778 50.1294 4.87837 50.4028 5.76159C50.435 5.85827 50.4672 5.95495 50.5004 6.05456C50.5104 6.31291 50.5148 6.56871 50.5148 6.82709C50.5151 6.90667 50.5155 6.98625 50.5159 7.06824C50.5169 7.33586 50.5173 7.60347 50.5177 7.87109C50.5183 8.06262 50.519 8.25415 50.5196 8.44568C50.5217 9.07571 50.5227 9.70575 50.5237 10.3358C50.5241 10.5528 50.5245 10.7698 50.5249 10.9868C50.5267 12.0067 50.5281 13.0266 50.5289 14.0465C50.5299 15.2228 50.5325 16.3991 50.5364 17.5753C50.5394 18.485 50.5408 19.3946 50.5411 20.3043C50.5414 20.8473 50.5422 21.3903 50.5447 21.9333C50.547 22.4448 50.5474 22.9562 50.5464 23.4677C50.5463 23.6548 50.5469 23.8419 50.5483 24.0289C50.5579 25.4461 50.4153 26.5762 49.5238 27.7342C49.4798 27.7943 49.4357 27.8543 49.3903 27.9162C48.5956 28.9287 47.3661 29.5159 46.1059 29.6874C45.8659 29.6938 45.6257 29.6957 45.3857 29.6935C45.2641 29.6926 45.1425 29.6917 45.0172 29.6908C44.9253 29.6897 44.8334 29.6885 44.7387 29.6874C44.7397 29.8454 44.7397 29.8454 44.7407 30.0066C44.7466 30.9995 44.751 31.9924 44.7539 32.9853C44.7554 33.4958 44.7575 34.0062 44.7608 34.5167C44.764 35.0093 44.7657 35.5019 44.7665 35.9946C44.767 36.1825 44.7681 36.3705 44.7697 36.5584C44.7718 36.8217 44.7721 37.0849 44.7719 37.3481C44.773 37.4258 44.7741 37.5035 44.7751 37.5835C44.7727 38.0274 44.7313 38.3244 44.4457 38.6717C44.1048 38.817 43.8844 38.9023 43.5226 38.798C43.2411 38.6551 43.0655 38.4957 42.8466 38.2689C42.7699 38.1896 42.6933 38.1103 42.6143 38.0286C42.3726 37.7688 42.1381 37.5043 41.907 37.2351C41.6558 36.9481 41.3969 36.6687 41.1376 36.389C40.405 35.5983 39.6839 34.798 38.977 33.9842C38.9556 34.0916 38.9342 34.199 38.9121 34.3096C38.607 35.7621 38.0897 36.9664 36.8472 37.8504C35.7441 38.5603 34.6577 38.8136 33.3561 38.8101C33.2384 38.8109 33.1207 38.8118 32.9995 38.8126C32.6796 38.8146 32.3598 38.8154 32.0399 38.8156C31.7019 38.8162 31.3639 38.8184 31.0259 38.8205C30.3849 38.8243 29.7438 38.8267 29.1028 38.8285C27.9602 38.8317 26.8177 38.8375 25.6752 38.8435C25.3406 38.8452 25.0059 38.8467 24.6713 38.8476C23.4327 38.8509 22.1938 38.8561 20.9557 38.8954C20.8683 38.8971 20.781 38.8987 20.6909 38.9004C20.2083 38.9196 19.9152 38.9662 19.5495 39.3126C19.4451 39.4537 19.3451 39.5982 19.2504 39.746C19.1465 39.8676 19.0406 39.9876 18.933 40.1061C18.8779 40.1701 18.8227 40.2342 18.7659 40.3002C18.5133 40.5882 18.2535 40.8689 17.9931 41.1498C17.5709 41.6053 17.1529 42.064 16.7384 42.5265C16.4869 42.8056 16.2331 43.0826 15.9789 43.3592C15.6515 43.7156 15.3256 44.0733 15.0024 44.4335C14.6791 44.7936 14.3532 45.1513 14.0258 45.5077C13.3614 46.2312 12.7006 46.9572 12.0639 47.7053C11.7995 47.9858 11.5337 47.9728 11.1613 48.0002C10.8161 47.9169 10.6802 47.7351 10.4613 47.4608C10.4156 47.1606 10.3992 46.9158 10.4059 46.6165C10.4058 46.5326 10.4058 46.4487 10.4057 46.3623C10.406 46.0859 10.4098 45.8096 10.4137 45.5332C10.4146 45.3413 10.4153 45.1493 10.4158 44.9573C10.4176 44.4527 10.4224 43.9481 10.4278 43.4435C10.4328 42.9284 10.435 42.4132 10.4375 41.898C10.4427 40.8877 10.4511 39.8774 10.4613 38.8671C10.3991 38.8675 10.3369 38.8679 10.2727 38.8684C9.61996 38.8727 8.96718 38.8756 8.31439 38.8778C8.07136 38.8788 7.82833 38.8801 7.5853 38.8818C7.23427 38.8842 6.88325 38.8853 6.53221 38.8861C6.42504 38.8871 6.31788 38.8881 6.20746 38.8892C4.46803 38.8894 3.05803 38.5068 1.76994 37.3046C0.622743 35.9475 0.456405 34.6971 0.460949 32.969C0.460392 32.7774 0.459711 32.5858 0.458918 32.3941C0.457171 31.8758 0.45728 31.3574 0.457838 30.8391C0.45814 30.4054 0.457544 29.9718 0.456956 29.5381C0.455585 28.5146 0.455735 27.491 0.456848 26.4675C0.457969 25.4136 0.456594 24.3598 0.453977 23.3059C0.451809 22.3991 0.451166 21.4924 0.451739 20.5856C0.452067 20.0449 0.451837 19.5042 0.450152 18.9635C0.448636 18.4548 0.449034 17.9462 0.450865 17.4375C0.451224 17.2515 0.450926 17.0655 0.4499 16.8796C0.441445 15.2199 0.727121 13.8752 1.89811 12.6158C2.88619 11.696 4.18689 11.2122 5.52505 11.2193C5.59656 11.2192 5.66807 11.2192 5.74175 11.2192C5.97688 11.2193 6.21201 11.22 6.44714 11.2208C6.61065 11.221 6.77416 11.2211 6.93768 11.2212C7.36713 11.2216 7.79659 11.2226 8.22604 11.2236C8.66463 11.2246 9.10322 11.2251 9.54181 11.2256C10.4017 11.2266 11.2616 11.2283 12.1215 11.2303C12.1206 11.1708 12.1198 11.1112 12.1189 11.0498C12.1102 10.4239 12.1043 9.7981 12.1 9.17219C12.0981 8.9393 12.0954 8.70641 12.092 8.47353C12.0566 5.98289 12.0566 5.98289 12.5121 4.98034C12.5675 4.85793 12.5675 4.85793 12.624 4.73305C13.1727 3.59817 14.1829 2.71877 15.352 2.26471C16.0329 2.03953 16.6598 2.00932 17.3731 2.01345ZM14.4653 5.078C13.9445 5.89501 13.8506 6.68553 13.8602 7.63499C13.8605 7.73806 13.8608 7.84114 13.8611 7.94734C13.8622 8.27468 13.8646 8.60199 13.8671 8.92931C13.8681 9.15203 13.869 9.37474 13.8698 9.59746C13.8719 10.1418 13.8752 10.686 13.8793 11.2303C13.9824 11.2302 14.0855 11.23 14.1917 11.2298C16.703 11.2255 19.2144 11.2222 21.7257 11.2202C22.9401 11.2192 24.1546 11.2178 25.369 11.2156C26.4278 11.2137 27.4866 11.2124 28.5454 11.212C29.1058 11.2117 29.6662 11.2111 30.2265 11.2097C30.7546 11.2084 31.2827 11.208 31.8107 11.2082C32.0039 11.2082 32.1971 11.2078 32.3903 11.2071C34.3492 11.1998 36.032 11.3516 37.5056 12.7806C38.6292 13.9791 38.8268 15.4116 38.8115 16.9914C38.8111 17.1461 38.8108 17.3009 38.8107 17.4556C38.8102 17.7868 38.8088 18.118 38.8068 18.4491C38.8038 18.9733 38.8036 19.4974 38.8039 20.0216C38.8043 21.5113 38.802 23.001 38.7947 24.4908C38.7908 25.3152 38.7896 26.1395 38.7915 26.9639C38.7925 27.4845 38.7901 28.005 38.7852 28.5256C38.7829 28.8497 38.784 29.1738 38.7859 29.4979C38.7862 29.6476 38.7851 29.7974 38.7826 29.9471C38.7544 30.7638 38.7544 30.7638 39.0483 31.5046C39.2426 31.6999 39.4424 31.8636 39.6606 32.0311C39.7692 32.1486 39.8754 32.2684 39.9779 32.3912C40.2836 32.7465 40.5993 33.0913 40.9179 33.4349C42.2215 34.8424 42.2215 34.8424 42.6879 35.4125C42.7524 35.489 42.8168 35.5655 42.8832 35.6444C42.9154 35.6444 42.9477 35.6444 42.9809 35.6444C42.9812 35.5547 42.9816 35.4651 42.982 35.3727C42.9857 34.5278 42.9912 33.6829 42.9988 32.838C43.0027 32.4036 43.0058 31.9692 43.0073 31.5348C43.0088 31.1156 43.0122 30.6965 43.0168 30.2773C43.0183 30.1174 43.0191 29.9574 43.0191 29.7975C43.0194 29.5734 43.022 29.3496 43.0252 29.1256C43.0261 28.998 43.027 28.8705 43.0279 28.7392C43.0866 28.3668 43.1707 28.25 43.4692 28.0272C43.7011 27.9786 43.7011 27.9786 43.9574 27.978C44.0987 27.9756 44.0987 27.9756 44.2427 27.9732C44.3915 27.9727 44.3915 27.9727 44.5434 27.9723C45.7454 27.9427 46.8257 27.8809 47.766 27.0507C48.4579 26.3224 48.7887 25.579 48.7805 24.5802C48.781 24.5024 48.7815 24.4247 48.782 24.3446C48.7834 24.0861 48.7827 23.8277 48.7821 23.5692C48.7826 23.3831 48.7833 23.1969 48.7841 23.0108C48.7858 22.5066 48.7857 22.0023 48.7852 21.4981C48.7849 21.0766 48.7855 20.6551 48.786 20.2335C48.7874 19.2387 48.7873 18.244 48.7862 17.2492C48.785 16.2243 48.7864 15.1994 48.789 14.1745C48.7912 13.2932 48.7918 12.412 48.7913 11.5308C48.7909 11.0051 48.7912 10.4793 48.7929 9.95358C48.7944 9.45901 48.794 8.96447 48.7921 8.46989C48.7918 8.28889 48.7921 8.10788 48.7931 7.92688C48.7998 6.65449 48.7234 5.66039 47.8065 4.69195C46.8427 3.87478 45.8416 3.79396 44.6344 3.79344C44.5147 3.79301 44.395 3.79258 44.2717 3.79214C43.9401 3.79106 43.6085 3.79042 43.277 3.78997C42.9191 3.78939 42.5612 3.78826 42.2033 3.78721C41.3394 3.78482 40.4756 3.78339 39.6117 3.78213C39.3676 3.78176 39.1235 3.78138 38.8793 3.78098C37.3622 3.77851 35.845 3.77636 34.3278 3.77515C33.9767 3.77486 33.6255 3.77457 33.2744 3.77428C33.1435 3.77417 33.1435 3.77417 33.0099 3.77406C31.5965 3.77282 30.1831 3.76957 28.7697 3.76551C27.3174 3.76136 25.8652 3.75906 24.4129 3.75855C23.598 3.75822 22.783 3.75708 21.9681 3.75385C21.2741 3.75111 20.58 3.75005 19.8859 3.75114C19.5321 3.75164 19.1784 3.75137 18.8246 3.74894C18.4401 3.74633 18.0557 3.74754 17.6713 3.74909C17.5607 3.74773 17.4502 3.74638 17.3363 3.74498C16.1726 3.75649 15.1847 4.1396 14.4653 5.078ZM31.015 12.8922C30.7833 12.8926 30.5517 12.893 30.3201 12.8934C30.1385 12.8938 30.1385 12.8938 29.9533 12.8941C29.828 12.8943 29.7027 12.8946 29.5736 12.8948C29.4424 12.8951 29.3113 12.8953 29.1801 12.8955C26.7114 12.9 24.2427 12.9061 21.7739 12.9129C21.372 12.914 20.97 12.915 20.568 12.9161C20.488 12.9163 20.408 12.9166 20.3256 12.9168C19.0268 12.9202 17.7279 12.9227 16.4291 12.9247C15.0922 12.9268 13.7553 12.9301 12.4184 12.9343C11.5955 12.9369 10.7725 12.9386 9.94959 12.9393C9.38606 12.9398 8.82254 12.9414 8.25901 12.9438C7.93431 12.9451 7.60964 12.9459 7.28494 12.9457C6.93233 12.9455 6.57978 12.9471 6.22718 12.9492C6.12552 12.9487 6.02386 12.9483 5.91913 12.9478C4.8637 12.958 3.93487 13.2175 3.1459 13.9403C2.18526 14.9519 2.20138 16.0559 2.20768 17.3722C2.20715 17.5585 2.20645 17.7449 2.2056 17.9312C2.20383 18.435 2.20451 18.9388 2.20575 19.4426C2.20674 19.971 2.20582 20.4993 2.20521 21.0277C2.2045 21.9147 2.20543 22.8016 2.20729 23.6886C2.20942 24.7129 2.20873 25.7371 2.20658 26.7614C2.20481 27.6423 2.20456 28.5231 2.20558 29.404C2.20619 29.9295 2.20627 30.455 2.20498 30.9804C2.20385 31.4744 2.20464 31.9684 2.20689 32.4624C2.20741 32.6433 2.20726 32.8242 2.2064 33.0051C2.18115 34.2826 2.18115 34.2826 2.64884 35.4491C2.70172 35.5352 2.75459 35.6213 2.80906 35.71C3.40237 36.4761 4.05203 36.9059 5.01899 37.0637C5.5815 37.1309 6.14619 37.1258 6.712 37.1287C6.91767 37.1299 7.12332 37.1318 7.32898 37.1339C7.91312 37.1399 8.49725 37.1452 9.0814 37.1484C9.44007 37.1505 9.79871 37.1539 10.1574 37.1583C10.2937 37.1597 10.43 37.1605 10.5663 37.1608C10.7563 37.1613 10.9463 37.1637 11.1363 37.1662C11.2443 37.167 11.3523 37.1678 11.4636 37.1686C11.7309 37.2069 11.7309 37.2069 11.9084 37.3437C12.1588 37.6824 12.1365 37.9455 12.1416 38.3628C12.1425 38.4314 12.1435 38.5 12.1445 38.5707C12.1476 38.7979 12.15 39.0251 12.1524 39.2523C12.1544 39.4097 12.1565 39.5671 12.1585 39.7244C12.1639 40.139 12.1688 40.5535 12.1735 40.968C12.1784 41.3909 12.1838 41.8137 12.1892 42.2366C12.1997 43.0665 12.2096 43.8965 12.2192 44.7264C12.3286 44.6337 12.4379 44.5408 12.5471 44.4478C12.608 44.3961 12.6689 44.3444 12.7316 44.2911C12.9444 44.1039 13.1315 43.9023 13.3178 43.6888C13.6478 43.315 13.981 42.9448 14.3188 42.578C14.6462 42.2217 14.9721 41.864 15.2953 41.5038C15.664 41.093 16.0365 40.6857 16.41 40.2793C16.6912 39.9729 16.9707 39.6649 17.2485 39.3553C17.5805 38.9856 17.9142 38.6174 18.2494 38.2506C18.3786 38.1092 18.3786 38.1092 18.5104 37.9649C18.5934 37.8759 18.6765 37.7869 18.7621 37.6952C18.8271 37.6052 18.892 37.5152 18.959 37.4224C19.69 36.8818 21.0313 37.0946 21.9126 37.0938C22.0468 37.0934 22.1811 37.0929 22.3153 37.0923C22.6017 37.0913 22.888 37.0904 23.1744 37.0898C23.628 37.0887 24.0817 37.0868 24.5354 37.0846C25.8244 37.0786 27.1135 37.0733 28.4026 37.07C29.1166 37.0683 29.8307 37.0654 30.5448 37.0615C30.9215 37.0594 31.2982 37.0579 31.675 37.0577C32.029 37.0575 32.3831 37.0559 32.7371 37.0533C32.9275 37.0523 33.1179 37.0527 33.3082 37.0532C34.3936 37.043 35.3036 36.8483 36.1449 36.1327C36.8824 35.3405 37.1365 34.4957 37.1352 33.4267C37.1355 33.3516 37.1358 33.2765 37.1361 33.1991C37.1369 32.9479 37.1371 32.6966 37.1372 32.4453C37.1377 32.265 37.1382 32.0847 37.1387 31.9043C37.14 31.4146 37.1406 30.9249 37.1411 30.4352C37.1413 30.129 37.1417 29.8229 37.1422 29.5167C37.1435 28.5582 37.1445 27.5998 37.1448 26.6413C37.1453 25.536 37.147 24.4307 37.1498 23.3253C37.1519 22.4703 37.1529 21.6152 37.153 20.7601C37.1531 20.2497 37.1537 19.7394 37.1555 19.229C37.1571 18.7486 37.1573 18.2683 37.1564 17.7879C37.1564 17.6121 37.1568 17.4363 37.1577 17.2605C37.1649 15.8721 37.072 14.8429 36.087 13.7999C35.2798 13.0384 34.2693 12.8745 33.1926 12.8841C33.0444 12.885 32.8962 12.8859 32.748 12.8868C32.6668 12.8874 32.5856 12.8881 32.5019 12.8887C32.0063 12.892 31.5106 12.8917 31.015 12.8922Z" fill="black"/>
<path d="M9.39745 24.4752C9.48843 24.4748 9.57941 24.4744 9.67315 24.474C9.97874 24.4731 10.2843 24.4742 10.5899 24.4754C10.8087 24.4751 11.0274 24.4748 11.2462 24.4743C11.841 24.4734 12.4358 24.4743 13.0306 24.4756C13.6524 24.4767 14.2742 24.4763 14.896 24.4761C15.9402 24.476 16.9845 24.4771 18.0287 24.4789C19.1033 24.4808 20.1779 24.4815 21.2525 24.4809C22.5472 24.4803 23.8419 24.4806 25.1366 24.4818C25.6313 24.4823 26.1259 24.4823 26.6206 24.4821C27.2028 24.482 27.7851 24.4827 28.3673 24.4843C28.5813 24.4847 28.7953 24.4848 29.0093 24.4845C29.3008 24.4842 29.5923 24.4851 29.8838 24.4863C29.969 24.4859 30.0543 24.4855 30.1421 24.4852C30.2592 24.486 30.2592 24.486 30.3787 24.4869C30.4796 24.487 30.4796 24.487 30.5826 24.4871C30.8146 24.5171 30.966 24.5831 31.1641 24.7071C31.4029 25.0652 31.4299 25.3647 31.3594 25.7813C31.1767 26.0187 31.0389 26.1368 30.7734 26.2696C30.4842 26.28 30.1972 26.2844 29.9079 26.2846C29.8172 26.285 29.7265 26.2854 29.633 26.2859C29.327 26.2872 29.0211 26.2878 28.7151 26.2884C28.4965 26.2892 28.2779 26.29 28.0593 26.2908C27.3398 26.2934 26.6204 26.2949 25.9009 26.2963C25.6536 26.2968 25.4063 26.2973 25.1589 26.2978C24.1304 26.2999 23.102 26.3018 22.0735 26.3029C21.8065 26.3032 21.5396 26.3035 21.2726 26.3037C21.1731 26.3039 21.1731 26.3039 21.0716 26.304C19.9965 26.3052 18.9214 26.3084 17.8463 26.3125C16.7428 26.3167 15.6394 26.3189 14.536 26.3195C13.9163 26.3198 13.2967 26.321 12.677 26.3242C12.0942 26.3271 11.5114 26.3277 10.9286 26.3266C10.7144 26.3266 10.5003 26.3274 10.2862 26.3291C9.99425 26.3313 9.70246 26.3305 9.41051 26.3289C9.32543 26.3303 9.24035 26.3316 9.15269 26.333C8.72541 26.3274 8.55953 26.3104 8.21298 26.037C8.00873 25.767 7.93029 25.6295 7.92188 25.293C7.99353 25.0194 8.07234 24.8529 8.26491 24.646C8.63443 24.4418 8.98178 24.4717 9.39745 24.4752Z" fill="black"/>
<path d="M8.99685 29.4675C9.07421 29.4669 9.15156 29.4664 9.23126 29.4658C9.31567 29.4661 9.40007 29.4665 9.48703 29.4669C9.57715 29.4665 9.66726 29.4661 9.76011 29.4657C10.0628 29.4647 10.3654 29.4651 10.6681 29.4655C10.8848 29.4651 11.1015 29.4646 11.3182 29.464C11.9073 29.4627 12.4965 29.4626 13.0856 29.4629C13.5771 29.463 14.0685 29.4625 14.56 29.462C15.7855 29.4609 17.011 29.461 18.2365 29.4616C19.3009 29.4621 20.3652 29.461 21.4296 29.4592C22.5224 29.4573 23.6152 29.4565 24.7081 29.4568C25.3216 29.457 25.9352 29.4567 26.5488 29.4554C27.1256 29.4542 27.7025 29.4544 28.2794 29.4556C28.4913 29.4559 28.7032 29.4556 28.9151 29.4548C29.204 29.4538 29.4929 29.4546 29.7818 29.4558C29.866 29.4551 29.9502 29.4544 30.0369 29.4536C30.6114 29.4588 30.9428 29.5641 31.3594 29.9806C31.4372 30.6586 31.4372 30.6586 31.1684 31.0154C30.7615 31.3367 30.471 31.3183 29.9667 31.3115C29.8753 31.3122 29.7839 31.3129 29.6897 31.3136C29.3833 31.3153 29.077 31.3135 28.7705 31.3118C28.5509 31.3123 28.3313 31.313 28.1117 31.3139C27.5151 31.3157 26.9185 31.3144 26.3219 31.3125C25.6979 31.3109 25.074 31.3118 24.45 31.3123C23.4022 31.3127 22.3543 31.3112 21.3065 31.3084C20.2284 31.3056 19.1505 31.3049 18.0725 31.3064C16.7732 31.3083 15.474 31.3081 14.1747 31.3062C13.6785 31.3056 13.1823 31.3057 12.6861 31.3064C12.1019 31.3071 11.5178 31.3059 10.9336 31.3033C10.719 31.3026 10.5044 31.3026 10.2898 31.3033C9.99725 31.3041 9.7048 31.3026 9.41224 31.3004C9.32698 31.3012 9.24172 31.302 9.15388 31.3029C8.75993 31.2974 8.55612 31.2798 8.21325 31.0692C7.9619 30.7971 7.92188 30.6429 7.92188 30.2736C8.11284 29.751 8.11284 29.751 8.39676 29.5748C8.61431 29.4888 8.76422 29.4678 8.99685 29.4675Z" fill="black"/>
<path d="M8.88308 19.4928C9.0293 19.4911 9.0293 19.4911 9.17848 19.4894C9.28532 19.4897 9.39217 19.49 9.50225 19.4903C9.61485 19.4895 9.72746 19.4886 9.84348 19.4878C10.2168 19.4855 10.5902 19.4854 10.9635 19.4855C11.1571 19.485 11.3506 19.4845 11.5441 19.4839C12.1529 19.482 12.7616 19.4817 13.3703 19.4824C13.998 19.483 14.6256 19.4808 15.2533 19.4772C15.7924 19.4742 16.3315 19.4731 16.8706 19.4734C17.1925 19.4736 17.5143 19.4729 17.8362 19.4707C18.1953 19.4686 18.5543 19.4695 18.9135 19.4712C19.0732 19.4693 19.0732 19.4693 19.2361 19.4673C19.9572 19.4753 19.9572 19.4753 20.3412 19.7664C20.6166 20.1578 20.5865 20.3307 20.5193 20.8008C20.3038 21.0907 20.1789 21.1747 19.8357 21.2891C19.6846 21.2984 19.5332 21.3023 19.3818 21.3028C19.2886 21.3034 19.1953 21.3039 19.0993 21.3045C18.9972 21.3046 18.895 21.3047 18.7898 21.3048C18.6821 21.3053 18.5744 21.3058 18.4635 21.3063C18.1065 21.3077 17.7495 21.3084 17.3924 21.3089C17.1446 21.3095 16.8969 21.3101 16.6491 21.3106C16.1957 21.3115 15.7422 21.3121 15.2888 21.3124C14.6221 21.3129 13.9553 21.3146 13.2886 21.3174C12.7106 21.3198 12.1326 21.3205 11.5546 21.3207C11.309 21.321 11.0633 21.3218 10.8177 21.3231C10.474 21.3247 10.1304 21.3245 9.78675 21.3239C9.68522 21.3248 9.58369 21.3257 9.47908 21.3266C8.95677 21.3236 8.55968 21.3076 8.11699 20.9961C7.95843 20.6394 7.89345 20.4254 7.98882 20.044C8.23223 19.6267 8.39286 19.4949 8.88308 19.4928Z" fill="black"/>
</g>
<defs>
<clipPath id="clip0_526_436">
<rect width="50" height="50" fill="white" transform="translate(0.5)"/>
</clipPath>
</defs>
</svg>
