<svg width="90" height="90" viewBox="0 0 90 90" fill="none" xmlns="http://www.w3.org/2000/svg">
<rect x="0.5" y="0.5" width="89" height="89" rx="44.5" fill="#D6C8FF"/>
<rect x="0.5" y="0.5" width="89" height="89" rx="44.5" stroke="#BABABA"/>
<g clip-path="url(#clip0_1047_3913)">
<path d="M39.7127 45.581C40.3559 46.0039 41.0036 46.357 41.7189 46.6407C41.768 46.6602 41.817 46.6797 41.8675 46.6998C44.2595 47.6229 46.5542 47.3325 48.8728 46.3685C49.5631 46.0459 50.189 45.6221 50.8189 45.1959C52.2924 44.2073 52.2924 44.2073 53.1056 44.253C53.1651 44.2549 53.2246 44.2567 53.2859 44.2587C55.2603 44.3458 57.126 45.1488 58.4774 46.6122C61.0142 49.5261 61.6498 53.6918 61.7189 57.422C61.722 57.5166 61.7252 57.6111 61.7284 57.7086C61.7644 59.416 61.433 61.3073 60.2638 62.6222C60.1511 62.7389 60.0373 62.8547 59.922 62.9689C59.8544 63.0398 59.7867 63.1107 59.717 63.1837C59.6557 63.2417 59.5945 63.2997 59.5314 63.3595C59.476 63.413 59.476 63.413 59.4194 63.4675C57.8095 64.9423 55.7398 65.0356 53.6841 65.0317C53.473 65.0321 53.262 65.0327 53.0509 65.0333C52.5394 65.0346 52.0279 65.0347 51.5163 65.0343C51.1001 65.034 50.6839 65.0341 50.2676 65.0345C50.2081 65.0346 50.1486 65.0346 50.0873 65.0347C49.9664 65.0348 49.8455 65.0349 49.7246 65.0351C48.5935 65.0361 47.4625 65.0357 46.3314 65.0348C45.2995 65.034 44.2677 65.035 43.2358 65.0369C42.173 65.0388 41.1103 65.0396 40.0475 65.0391C39.4521 65.0388 38.8568 65.0389 38.2614 65.0403C37.7546 65.0415 37.2477 65.0415 36.7409 65.0402C36.4829 65.0395 36.225 65.0395 35.9671 65.0405C33.7027 65.0489 31.7529 64.6917 30.0783 63.047C30.0179 62.9885 29.9574 62.93 29.8952 62.8697C28.7849 61.7232 28.2735 60.1248 28.2655 58.5508C28.265 58.4787 28.2644 58.4066 28.2639 58.3324C28.2625 58.0989 28.262 57.8654 28.2619 57.632C28.2618 57.5524 28.2618 57.4728 28.2617 57.3908C28.263 56.1856 28.3059 55.0175 28.5158 53.8282C28.53 53.7441 28.5443 53.6599 28.5589 53.5732C28.982 51.1038 29.7161 48.7562 31.3283 46.797C31.37 46.7433 31.4117 46.6896 31.4546 46.6343C32.532 45.2861 34.3274 44.5096 36.0087 44.3139C37.5612 44.1534 38.4454 44.7394 39.7127 45.581ZM35.7228 46.8458C35.6418 46.8668 35.6418 46.8668 35.5591 46.8882C34.1197 47.2822 33.1486 48.2418 32.4123 49.5118C31.0961 51.8678 30.6937 54.6355 30.6759 57.3023C30.6746 57.4433 30.6725 57.5842 30.6695 57.7251C30.6427 59.0054 30.7712 60.1597 31.6408 61.172C31.6834 61.2222 31.726 61.2725 31.7699 61.3243C32.7493 62.3867 34.1489 62.6084 35.5257 62.6651C36.0909 62.6795 36.6561 62.6777 37.2214 62.6766C37.4094 62.6768 37.5975 62.6771 37.7855 62.6774C38.2398 62.6781 38.6941 62.678 39.1484 62.6775C39.5181 62.6772 39.8879 62.6771 40.2576 62.6773C40.3371 62.6773 40.3371 62.6773 40.4181 62.6774C40.5258 62.6774 40.6334 62.6775 40.7411 62.6775C41.7465 62.6779 42.7519 62.6774 43.7574 62.6766C44.617 62.6759 45.4766 62.676 46.3362 62.6767C47.3384 62.6776 48.3407 62.6779 49.3429 62.6774C49.4501 62.6774 49.5573 62.6773 49.6645 62.6773C49.7173 62.6773 49.77 62.6772 49.8243 62.6772C50.1929 62.6771 50.5615 62.6773 50.9301 62.6777C51.4278 62.6781 51.9254 62.6778 52.423 62.6769C52.6046 62.6767 52.7861 62.6768 52.9677 62.6771C55.7691 62.693 55.7691 62.693 58.1496 61.3429C59.2584 60.1593 59.3264 58.7089 59.2775 57.173C59.2757 57.1143 59.2739 57.0556 59.2721 56.9952C59.1708 53.8425 58.6378 50.1386 56.2434 47.8498C55.4075 47.1394 54.2548 46.6678 53.1432 46.6847C52.7625 46.7593 52.4536 47.0108 52.1388 47.2267C51.9855 47.3279 51.8321 47.4289 51.6786 47.5297C51.6049 47.5787 51.5311 47.6276 51.4551 47.6781C48.9633 49.3141 45.9188 50.1112 42.9585 49.5387C40.929 49.1016 39.2322 48.2398 37.5272 47.075C36.8954 46.6552 36.4498 46.6577 35.7228 46.8458Z" fill="black"/>
<path d="M50.6963 26.9861C51.3708 27.5513 51.9651 28.1247 52.4981 28.8272C52.5453 28.8889 52.5925 28.9505 52.6412 29.014C53.5353 30.2331 54.0284 31.5619 54.2949 33.046C54.3094 33.1259 54.3239 33.2059 54.3389 33.2883C54.6338 35.9166 54.0331 38.4368 52.4199 40.546C52.1959 40.8172 51.9604 41.0736 51.7168 41.3272C51.6509 41.398 51.5851 41.4688 51.5172 41.5418C51.0017 42.0805 50.4671 42.4896 49.8418 42.8897C49.7769 42.933 49.7119 42.9763 49.645 43.0209C48.2029 43.944 46.4365 44.3288 44.7442 44.3204C44.6522 44.32 44.5602 44.3196 44.4654 44.3192C43.7334 44.3094 43.051 44.2407 42.3418 44.0616C42.2645 44.0421 42.2645 44.0421 42.1856 44.0222C40.7762 43.6551 39.4422 42.9578 38.3785 41.9611C38.2308 41.8235 38.0805 41.6971 37.9229 41.5714C37.5467 41.251 37.2518 40.8575 36.9512 40.4678C36.9045 40.4076 36.8577 40.3474 36.8096 40.2854C35.5923 38.6341 35.0441 36.731 35.0469 34.6915C35.0469 34.6387 35.047 34.586 35.047 34.5316C35.0521 33.1421 35.27 31.8875 35.8574 30.6241C35.8927 30.5443 35.9279 30.4646 35.9642 30.3824C36.716 28.7684 38.0441 27.3642 39.5293 26.4053C39.598 26.3604 39.6667 26.3155 39.7374 26.2692C43.0449 24.2192 47.6846 24.5362 50.6963 26.9861ZM39.188 29.8893C37.7341 31.5662 37.4031 33.454 37.4981 35.6241C37.5639 36.3737 37.7963 37.0595 38.1231 37.7335C38.1585 37.8066 38.194 37.8797 38.2305 37.955C39.1019 39.6457 40.6547 40.9811 42.4599 41.5735C44.2627 42.1119 46.2734 42.0274 47.9668 41.171C48.6655 40.7904 49.2706 40.3183 49.8418 39.7647C49.8886 39.7236 49.9355 39.6825 49.9837 39.6402C51.1641 38.5666 51.8816 36.8457 51.9609 35.2761C52.0227 33.2358 51.5689 31.5045 50.2324 29.921C50.1728 29.842 50.1132 29.7631 50.0518 29.6817C48.9049 28.4282 47.2584 27.5106 45.547 27.4069C43.024 27.3031 40.9161 27.9859 39.188 29.8893Z" fill="black"/>
</g>
<defs>
<clipPath id="clip0_1047_3913">
<rect width="40" height="40" fill="white" transform="translate(25 25)"/>
</clipPath>
</defs>
</svg>
