<svg width="49" height="48" viewBox="0 0 49 48" fill="none" xmlns="http://www.w3.org/2000/svg">
<g clip-path="url(#clip0_310_791)">
<path d="M47.9375 0.00191877C48.2126 0.170338 48.3568 0.277929 48.5 0.564419C48.5847 1.36135 48.4037 2.03142 48.1492 2.77999C48.0924 2.95324 48.0356 3.12648 47.9789 3.29973C47.9183 3.48378 47.857 3.66757 47.7954 3.85129C47.6652 4.23991 47.5372 4.62922 47.4095 5.01869C47.3658 5.15206 47.3221 5.28542 47.2783 5.41879C47.2566 5.48515 47.2348 5.55151 47.2124 5.61989C47.1458 5.82262 47.0791 6.02528 47.0122 6.22793C46.6316 7.38274 46.2632 8.54123 45.8992 9.70142C45.7276 10.2486 45.5552 10.7955 45.3828 11.3424C45.3475 11.4545 45.3121 11.5666 45.2757 11.6821C44.8134 13.1473 44.345 14.6107 43.877 16.0742C43.693 16.6495 43.509 17.2248 43.3251 17.8001C43.3023 17.8713 43.2796 17.9425 43.2561 18.0158C42.7644 19.5537 42.2745 21.0922 41.7852 22.6308C41.7445 22.7586 41.7038 22.8865 41.6632 23.0143C41.5011 23.5241 41.3389 24.0339 41.1768 24.5437C40.8917 25.4405 40.6064 26.3373 40.321 27.2341C40.2906 27.3299 40.2906 27.3299 40.2595 27.4277C40.1568 27.7504 40.0541 28.0731 39.9514 28.3959C39.7667 28.9762 39.5821 29.5564 39.3974 30.1367C39.2949 30.459 39.1924 30.7812 39.0898 31.1035C39.0488 31.2324 39.0078 31.3613 38.9668 31.4902C38.7207 32.2636 38.7207 32.2636 38.6592 32.457C38.6182 32.5859 38.5772 32.7148 38.5361 32.8437C38.4336 33.1661 38.331 33.4885 38.2284 33.811C38.0444 34.3892 37.8604 34.9674 37.6765 35.5456C37.5747 35.8655 37.473 36.1853 37.3712 36.5051C37.341 36.6002 37.341 36.6002 37.3101 36.6973C37.0334 37.5669 36.7565 38.4365 36.4795 39.306C36.3254 39.7898 36.1713 40.2735 36.0173 40.7573C35.8939 41.1449 35.7703 41.5326 35.6468 41.9202C35.5698 42.1618 35.4928 42.4034 35.4159 42.645C35.3597 42.8214 35.3034 42.9978 35.2471 43.1742C35.0452 43.8081 34.8473 44.443 34.6537 45.0795C34.5907 45.2855 34.5276 45.4915 34.4644 45.6975C34.4243 45.8293 34.3845 45.9612 34.345 46.0932C34.2902 46.2766 34.2343 46.4595 34.1781 46.6425C34.1309 46.799 34.1309 46.799 34.0828 46.9586C33.9082 47.4076 33.7157 47.7331 33.3125 48.0019C32.8638 48.0742 32.4945 48.0816 32.1113 47.8261C31.6116 47.1122 31.2948 46.2817 30.957 45.4824C30.8574 45.2482 30.7576 45.0141 30.6578 44.78C30.631 44.7169 30.6041 44.6537 30.5764 44.5887C30.2084 43.7251 29.8353 42.8636 29.4629 42.0019C29.3864 41.8249 29.3099 41.6479 29.2335 41.4709C29.0776 41.1101 28.9216 40.7492 28.7657 40.3883C28.5349 39.8541 28.3042 39.3198 28.0735 38.7855C27.3527 37.1159 26.6316 35.4464 25.9096 33.7774C25.5373 32.9167 25.1653 32.056 24.7937 31.195C24.7547 31.1046 24.7156 31.0141 24.6754 30.921C24.1373 29.6745 24.1373 29.6745 24.0028 29.3613C23.9324 29.199 23.861 29.0372 23.7885 28.8758C23.5953 28.442 23.4291 28.0129 23.2888 27.5589C23.0308 26.7757 22.7945 26.0782 22.0524 25.6461C21.455 25.3602 20.8301 25.1659 20.1992 24.9687C19.9677 24.8895 19.7364 24.8094 19.5055 24.7285C19.0893 24.5833 18.6727 24.4403 18.2546 24.3008C17.2299 23.9585 16.2249 23.5697 15.2193 23.1756C14.7166 22.9791 14.2127 22.7859 13.7089 22.5924C13.5075 22.5149 13.3062 22.4373 13.1048 22.3598C12.1922 22.0084 11.2794 21.6574 10.3666 21.3064C10.0643 21.1901 9.76198 21.0738 9.45965 20.9575C8.51794 20.5952 7.57617 20.2331 6.63417 19.8716C6.19498 19.703 5.75583 19.5344 5.31668 19.3657C5.10973 19.2862 4.90276 19.2068 4.69577 19.1275C4.13528 18.9126 3.57527 18.6965 3.01569 18.4793C2.74652 18.3756 2.4766 18.2741 2.20654 18.1728C2.03611 18.1076 1.8657 18.0423 1.69531 17.977C1.61767 17.9485 1.54002 17.92 1.46002 17.8906C1.02251 17.7208 0.754573 17.5731 0.5 17.1582C0.450195 16.9238 0.450195 16.9238 0.453125 16.6894C0.452158 16.6121 0.451191 16.5347 0.450195 16.455C0.517434 16.1386 0.65628 15.9885 0.875 15.7519C1.10693 15.6301 1.10693 15.6301 1.37151 15.5398C1.47191 15.5047 1.5723 15.4696 1.67573 15.4335C1.78528 15.3969 1.89483 15.3604 2.00769 15.3227C2.18122 15.2629 2.18123 15.2629 2.35827 15.2018C2.67318 15.0932 2.98872 14.9866 3.30444 14.8804C3.56369 14.7929 3.82259 14.7045 4.08148 14.616C4.89883 14.3367 5.71732 14.0608 6.53602 13.7855C6.90512 13.6613 7.27412 13.5369 7.64313 13.4124C7.75349 13.3752 7.75349 13.3752 7.86608 13.3372C8.01371 13.2874 8.16133 13.2376 8.30895 13.1878C8.52679 13.1143 8.74464 13.0408 8.96249 12.9674C10.0487 12.6011 11.1342 12.2325 12.2188 11.8613C12.292 11.8362 12.3653 11.8111 12.4408 11.7853C12.7332 11.6853 13.0256 11.5852 13.318 11.4851C14.2793 11.1562 15.2412 10.8292 16.2031 10.5019C17.5784 10.034 18.9534 9.56535 20.3281 9.09567C21.7028 8.62599 23.0779 8.1574 24.4531 7.68942C25.9129 7.19268 27.3724 6.69521 28.8315 6.19674C30.162 5.74223 31.4927 5.28838 32.8236 4.83482C33.9803 4.44057 35.137 4.04592 36.2935 3.65084C37.8449 3.12085 39.3967 2.59206 40.9488 2.06394C42.4834 1.54175 44.0175 1.01842 45.5515 0.494289C45.6284 0.468008 45.7053 0.441726 45.7846 0.414649C45.9275 0.365813 46.0704 0.316967 46.2133 0.26811C46.8148 0.0625949 47.2982 -0.0745494 47.9375 0.00191877ZM42.7918 3.7306C42.6755 3.77015 42.5593 3.8097 42.4396 3.85045C42.3752 3.87213 42.3109 3.89381 42.2446 3.91615C42.0296 3.98879 41.8149 4.06243 41.6002 4.13607C41.4492 4.18734 41.2981 4.23854 41.1469 4.28968C40.7421 4.4269 40.3375 4.56498 39.933 4.70323C39.5145 4.84608 39.0958 4.98814 38.6771 5.13029C37.7991 5.42853 36.9214 5.72784 36.0438 6.0274C35.6692 6.15523 35.2945 6.28279 34.9198 6.41037C34.1688 6.6661 33.4181 6.9227 32.6675 7.17979C31.7111 7.50729 30.7539 7.83256 29.7969 8.15817C28.4216 8.62612 27.0466 9.09474 25.6719 9.56442C24.2035 10.0661 22.7347 10.5665 21.2657 11.0663C19.9842 11.5024 18.7029 11.9392 17.4219 12.3769C16.1407 12.8147 14.8592 13.2515 13.5775 13.6877C9.19158 15.1786 9.19158 15.1786 4.8125 16.6894C5.05833 16.8859 5.28112 17.0233 5.57557 17.1334C5.65236 17.1624 5.72914 17.1915 5.80826 17.2215C5.93368 17.2679 5.93368 17.2679 6.06165 17.3153C6.19499 17.3655 6.19498 17.3655 6.33102 17.4168C6.52497 17.4898 6.71903 17.5625 6.91317 17.6351C7.44549 17.834 7.97701 18.0349 8.50867 18.2356C8.62038 18.2777 8.7321 18.3198 8.84719 18.3631C10.0791 18.8278 11.3072 19.3022 12.5352 19.7773C12.9839 19.9508 13.4326 20.1242 13.8813 20.2977C14.0475 20.3619 14.0475 20.3619 14.2169 20.4274C14.9905 20.7265 15.7644 21.0247 16.5386 21.3224C16.6985 21.3839 16.6985 21.3839 16.8617 21.4466C17.3803 21.646 17.8991 21.8452 18.4179 22.044C19.2908 22.3787 20.1627 22.7151 21.0305 23.063C21.2339 23.1439 21.4374 23.2249 21.6409 23.3058C21.8217 23.3783 22.0019 23.4523 22.1821 23.5264C22.2867 23.5681 22.3913 23.6097 22.499 23.6526C22.5878 23.6887 22.6766 23.7249 22.768 23.7622C23.0575 23.8274 23.1252 23.7777 23.375 23.6269C23.5544 23.4752 23.5544 23.4752 23.7315 23.2935C23.8015 23.2238 23.8715 23.1542 23.9436 23.0825C24.058 22.9673 24.058 22.9673 24.1746 22.8498C24.2561 22.7685 24.3376 22.6872 24.4215 22.6034C24.6476 22.3776 24.8733 22.1513 25.0988 21.9249C25.3421 21.6808 25.5859 21.4373 25.8296 21.1937C26.2519 20.7715 26.6738 20.349 27.0954 19.9263C27.7051 19.3152 28.3152 18.7045 28.9255 18.094C29.9157 17.1034 30.9054 16.1125 31.8948 15.1213C32.856 14.1583 33.8174 13.1956 34.7791 12.2331C34.8384 12.1738 34.8976 12.1145 34.9587 12.0534C35.256 11.7558 35.5533 11.4582 35.8507 11.1607C38.3177 8.69169 40.7841 6.22203 43.25 3.75192C43.0545 3.62825 43.0545 3.62825 42.7918 3.7306ZM44.9375 5.06442C38.255 11.7469 31.5725 18.4294 24.6875 25.3144C25.402 27.036 25.402 27.036 26.1355 28.7491C26.1779 28.8468 26.2204 28.9444 26.2641 29.045C26.3531 29.2498 26.4422 29.4544 26.5314 29.6591C26.6725 29.983 26.8134 30.307 26.9543 30.631C27.0972 30.9599 27.2402 31.2888 27.3832 31.6176C27.7748 32.518 28.1652 33.419 28.5547 34.3203C28.584 34.388 28.6132 34.4557 28.6434 34.5255C29.039 35.4407 29.4342 36.356 29.8294 37.2714C30.0184 37.7091 30.2075 38.1468 30.3966 38.5844C30.7301 39.3561 31.0632 40.1279 31.3942 40.9006C31.5336 41.226 31.6733 41.5513 31.8131 41.8766C31.8786 42.0294 31.944 42.1822 32.0092 42.3352C32.0987 42.5448 32.1886 42.7542 32.2787 42.9636C32.3049 43.0254 32.3311 43.0872 32.358 43.1509C32.4673 43.4035 32.5534 43.5866 32.75 43.7832C33.6251 41.0767 34.4973 38.3694 35.3516 35.6562C35.9892 33.6312 36.6326 31.6081 37.2793 29.5859C37.3253 29.4421 37.3712 29.2984 37.4172 29.1546C37.44 29.0834 37.4628 29.0121 37.4862 28.9387C37.6012 28.5791 37.7162 28.2195 37.8312 27.86C37.8653 27.7532 37.8653 27.7532 37.9001 27.6442C38.3919 26.1064 38.8817 24.5679 39.3711 23.0293C39.4117 22.9014 39.4524 22.7736 39.4931 22.6458C39.6552 22.136 39.8173 21.6262 39.9794 21.1164C40.2646 20.2195 40.5499 19.3228 40.8352 18.426C40.8556 18.362 40.8759 18.2981 40.8969 18.2322C40.9997 17.9092 41.1024 17.5862 41.2052 17.2631C41.4087 16.6238 41.6121 15.9844 41.8156 15.3451C41.8357 15.2817 41.8559 15.2184 41.8766 15.1531C42.1554 14.277 42.4341 13.4008 42.7128 12.5246C42.8685 12.0352 43.0242 11.5458 43.1799 11.0563C43.3053 10.6621 43.4307 10.2678 43.5561 9.87356C43.6149 9.68881 43.6737 9.50407 43.7324 9.31932C43.8075 9.08335 43.8825 8.84733 43.9574 8.61129C44.1384 8.04135 44.3212 7.47212 44.5077 6.90394C44.5433 6.79481 44.5789 6.68567 44.6156 6.57323C44.6828 6.36742 44.7506 6.1618 44.8191 5.95638C44.8485 5.86604 44.8779 5.77569 44.9083 5.68261C44.9475 5.56404 44.9475 5.56404 44.9875 5.44307C45.0537 5.2471 45.0537 5.2471 44.9375 5.06442Z" fill="black"/>
<path d="M16.8124 31.4051C17.0684 31.6414 17.1677 31.8137 17.2752 32.1434C17.2855 32.6561 17.0732 33.036 16.7344 33.4044C16.6256 33.515 16.5157 33.6245 16.405 33.7332C16.3141 33.8247 16.3141 33.8247 16.2213 33.918C16.0188 34.1214 15.815 34.3233 15.6112 34.5253C15.4654 34.6711 15.3197 34.817 15.1741 34.963C14.7791 35.3585 14.3829 35.7529 13.9864 36.1471C13.572 36.5596 13.1586 36.9731 12.745 37.3864C12.0507 38.0801 11.3558 38.7731 10.6604 39.4655C9.94455 40.1783 9.22928 40.8916 8.51463 41.6055C8.47057 41.6495 8.4265 41.6935 8.3811 41.7389C8.24811 41.8717 8.11511 42.0046 7.98211 42.1375C7.21588 42.9029 6.44923 43.668 5.68247 44.4329C5.43555 44.6792 5.18868 44.9256 4.9418 45.172C4.5546 45.5584 4.16715 45.9445 3.77949 46.3304C3.63693 46.4724 3.49444 46.6145 3.35204 46.7566C3.15836 46.9499 2.9644 47.143 2.77035 47.3359C2.68501 47.4213 2.68501 47.4213 2.59794 47.5084C2.23492 47.8685 2.05773 48.0142 1.54868 48.034C1.16605 48.0323 1.08852 48.0197 0.775246 47.7703C0.715304 47.691 0.655363 47.6118 0.593605 47.5301C0.562668 47.4992 0.53173 47.4682 0.499855 47.4363C0.429882 47.1096 0.437512 46.8267 0.499855 46.4988C0.641408 46.2922 0.641408 46.2922 0.838745 46.0852C0.915937 46.0036 0.99313 45.922 1.07266 45.838C1.16283 45.7456 1.25315 45.6534 1.34361 45.5613C1.39218 45.5115 1.44076 45.4616 1.49081 45.4102C1.90072 44.9898 2.31516 44.574 2.72997 44.1584C2.86866 44.0191 3.00734 43.8798 3.14601 43.7405C3.59797 43.2866 4.05043 42.8331 4.50291 42.3797C4.65918 42.2231 4.81544 42.0664 4.97171 41.9097C5.70499 41.1747 6.4385 40.4398 7.17229 39.7053C8.01838 38.8582 8.86369 38.0105 9.70836 37.162C10.3625 36.5051 11.0174 35.8488 11.6727 35.1931C12.0638 34.8018 12.4545 34.4103 12.8445 34.0179C13.2107 33.6496 13.5777 33.2822 13.9454 32.9154C14.0802 32.7806 14.2147 32.6456 14.3488 32.5102C14.5318 32.3255 14.716 32.142 14.9005 31.9588C14.9533 31.9049 15.0062 31.851 15.0607 31.7954C15.5926 31.2721 16.1122 31.0901 16.8124 31.4051Z" fill="black"/>
<path d="M20.8435 38.6233C21.2195 38.9421 21.3879 39.1299 21.447 39.6194C21.436 40.3889 20.6614 40.989 20.1502 41.4971C20.0833 41.5644 20.0163 41.6318 19.9472 41.7011C19.7278 41.9214 19.5077 42.141 19.2875 42.3605C19.1338 42.5143 18.9802 42.6681 18.8266 42.8219C18.5057 43.1432 18.1844 43.4641 17.8628 43.7847C17.4509 44.1956 17.0398 44.6073 16.629 45.0192C16.3124 45.3365 15.9953 45.6534 15.6781 45.9701C15.5263 46.1218 15.3747 46.2735 15.2232 46.4255C15.0116 46.6375 14.7995 46.8489 14.5871 47.0602C14.5248 47.1229 14.4625 47.1856 14.3983 47.2502C13.6044 48.0369 13.6044 48.0369 13.0212 48.0452C12.7201 48.0326 12.514 47.9899 12.2654 47.8167C12.0052 47.498 11.949 47.3153 11.9014 46.918C12.0062 46.2398 12.5425 45.7585 13.0071 45.2969C13.0765 45.2268 13.1459 45.1568 13.2174 45.0846C13.4459 44.8544 13.6753 44.6253 13.9049 44.3963C14.0647 44.2361 14.2244 44.0759 14.3841 43.9156C14.7185 43.5804 15.0534 43.2457 15.3887 42.9113C15.8179 42.4832 16.2456 42.0536 16.6729 41.6236C17.0022 41.2925 17.3324 40.9623 17.6629 40.6324C17.821 40.4744 17.9787 40.316 18.1362 40.1574C18.3565 39.9357 18.578 39.7152 18.7998 39.495C18.8643 39.4296 18.9289 39.3641 18.9954 39.2967C19.5413 38.759 20.0455 38.3869 20.8435 38.6233Z" fill="black"/>
<path d="M9.21857 27.0956C9.57792 27.2313 9.66975 27.3464 9.8631 27.6815C9.9889 28.1008 10.0161 28.2726 9.87482 28.6893C9.1839 29.5845 8.30941 30.3655 7.51239 31.1645C7.44043 31.2368 7.36847 31.309 7.29433 31.3834C6.91463 31.7645 6.53466 32.1453 6.15446 32.526C5.76262 32.9183 5.37167 33.3115 4.9809 33.7049C4.67905 34.0085 4.37657 34.3115 4.07392 34.6143C3.92945 34.7591 3.78521 34.9041 3.64121 35.0493C3.44024 35.2519 3.23839 35.4535 3.03631 35.655C2.94797 35.7446 2.94797 35.7446 2.85785 35.8361C2.48803 36.2024 2.12749 36.5265 1.5893 36.5911C1.18728 36.5501 1.00336 36.499 0.681461 36.2362C0.47446 35.9337 0.423349 35.6534 0.451419 35.2902C0.595148 34.6194 1.28553 34.064 1.75558 33.5968C1.82258 33.5295 1.88957 33.4622 1.95859 33.3928C2.17805 33.1725 2.39817 32.9529 2.61835 32.7334C2.77199 32.5796 2.9256 32.4258 3.07919 32.272C3.40017 31.9508 3.72147 31.6298 4.04303 31.3092C4.45495 30.8983 4.86602 30.4866 5.27685 30.0747C5.59347 29.7574 5.91054 29.4405 6.22774 29.1238C6.37952 28.9722 6.53116 28.8204 6.68266 28.6684C6.89422 28.4564 7.10637 28.245 7.31869 28.0337C7.41214 27.9397 7.41214 27.9397 7.50748 27.8438C8.03856 27.3175 8.44727 26.9845 9.21857 27.0956Z" fill="black"/>
</g>
<defs>
<clipPath id="clip0_310_791">
<rect width="48" height="48" fill="white" transform="translate(0.5)"/>
</clipPath>
</defs>
</svg>
