<svg width="90" height="90" viewBox="0 0 90 90" fill="none" xmlns="http://www.w3.org/2000/svg">
<rect x="0.5" y="0.5" width="89" height="89" rx="44.5" fill="#FFE0C2"/>
<rect x="0.5" y="0.5" width="89" height="89" rx="44.5" stroke="#D3D3D3"/>
<g clip-path="url(#clip0_1047_3928)">
<path d="M41.7987 27.423C41.8486 27.4482 41.8985 27.4735 41.9499 27.4995C43.0731 28.0712 44.0699 28.8372 44.9237 29.7667C45.1852 29.6545 45.3379 29.5166 45.5292 29.3078C46.9149 27.8948 48.7219 27.0028 50.6171 26.4953C50.6726 26.4803 50.7282 26.4654 50.7854 26.45C51.6909 26.2233 52.6007 26.1442 53.5321 26.1486C53.6803 26.1492 53.6803 26.1492 53.8315 26.1499C56.9749 26.1904 59.7359 27.5111 61.9392 29.7222C63.2306 31.0572 64.1125 32.7242 64.6307 34.4982C64.6596 34.5964 64.6596 34.5964 64.6891 34.6966C64.9614 35.6709 65.0314 36.6316 65.0262 37.6378C65.0261 37.6966 65.0259 37.7553 65.0257 37.8158C65.0218 38.6715 64.9899 39.4829 64.7674 40.3136C64.7454 40.4018 64.7454 40.4018 64.7229 40.4918C64.353 41.9567 63.7412 43.3342 62.8143 44.5324C62.7411 44.6315 62.7411 44.6315 62.6663 44.7326C62.3825 45.0997 62.0881 45.4168 61.745 45.7287C60.746 46.6412 60.746 46.6412 60.4159 47.9015C60.347 48.79 59.823 49.5013 59.1931 50.0966C58.4811 50.7013 57.5951 51.1425 56.6424 51.0949C56.6413 51.146 56.6402 51.1972 56.6391 51.2499C56.5825 52.3331 56.0786 53.2613 55.2997 54.005C54.5789 54.6137 53.7399 54.9037 52.8143 55.0011C52.8076 55.0579 52.8008 55.1147 52.7939 55.1732C52.6343 56.3149 52.1721 57.2809 51.2601 58.0135C50.5477 58.5012 49.8561 58.8428 48.9862 58.8293C48.9813 58.8955 48.9763 58.9618 48.9712 59.0301C48.8518 60.1745 48.3884 60.9907 47.5799 61.798C47.4832 61.9001 47.3865 62.0023 47.29 62.1047C46.3435 63.0961 45.4455 63.8061 44.0232 63.8605C42.801 63.88 41.7582 63.4917 40.852 62.6607C40.3894 62.1587 40.1055 61.5911 39.9237 60.9386C39.8706 60.9511 39.8176 60.9636 39.7629 60.9765C38.6313 61.1748 37.5145 60.9584 36.5643 60.3136C35.649 59.6051 35.0156 58.6945 34.8651 57.5255C34.8587 57.4401 34.8522 57.3547 34.8456 57.2668C34.7634 57.2732 34.6812 57.2796 34.5965 57.2863C33.5828 57.2809 32.6903 56.7479 31.9696 56.0753C31.2803 55.3467 30.8443 54.3438 30.8417 53.3361C30.8465 53.2139 30.8524 53.0918 30.8612 52.9699C30.7742 52.9634 30.6872 52.957 30.5975 52.9503C29.6151 52.8194 28.7681 52.2395 28.1708 51.4611C27.426 50.3595 27.2444 49.1392 27.4744 47.8399C27.6848 47.1582 28.0888 46.5796 28.5174 46.0167C28.4598 45.9732 28.4022 45.9297 28.3429 45.8849C27.9828 45.5838 27.7133 45.2123 27.4237 44.8449C27.3671 44.7766 27.3105 44.7083 27.2522 44.638C26.3345 43.49 25.7136 42.112 25.3143 40.7042C25.2969 40.6436 25.2795 40.583 25.2615 40.5205C24.8 38.8246 24.7643 36.6196 25.2362 34.923C25.2555 34.853 25.2749 34.783 25.2948 34.7108C25.8491 32.774 26.7419 31.1515 28.1268 29.6886C28.1909 29.6195 28.2549 29.5505 28.3209 29.4793C31.7483 25.8998 37.4553 25.1549 41.7987 27.423ZM45.1776 33.4142C45.0389 33.5533 44.9001 33.6924 44.7613 33.8315C44.4246 34.1691 44.0881 34.5069 43.7518 34.8449C44.0721 35.5251 44.7134 36.032 45.3924 36.3292C45.4458 36.354 45.4992 36.3788 45.5542 36.4043C46.246 36.6826 47.0831 36.6625 47.7817 36.4141C48.4549 36.1117 48.962 35.6879 49.4503 35.1437C49.5621 35.0231 49.5621 35.0231 49.7674 34.8449C50.0878 34.8566 50.2544 35.0686 50.4705 35.2853C50.5087 35.3234 50.5469 35.3614 50.5863 35.4006C50.7144 35.5283 50.8416 35.6568 50.9688 35.7853C51.0604 35.8769 51.1521 35.9686 51.2438 36.0601C51.4927 36.309 51.7409 36.5585 51.9889 36.8082C52.2483 37.069 52.5082 37.3291 52.7681 37.5893C53.2603 38.0822 53.7518 38.5756 54.2431 39.0693C54.8025 39.6313 55.3625 40.1926 55.9226 40.7538C57.0747 41.9084 58.226 43.0639 59.3768 44.2199C60.6282 43.6346 61.4814 41.7608 61.9549 40.548C62.7489 38.2429 62.542 35.9499 61.5036 33.7691C60.4338 31.6031 58.4772 29.9518 56.2079 29.1515C51.5468 27.735 48.2954 30.281 45.1776 33.4142ZM33.9081 29.1417C33.8535 29.1593 33.7989 29.1769 33.7426 29.195C31.4864 29.9426 29.6065 31.5378 28.5193 33.655C27.861 34.9873 27.4619 36.5513 27.5799 38.048C27.5872 38.1469 27.5944 38.2458 27.6019 38.3477C27.807 40.6778 28.8687 42.688 30.5487 44.298C30.5931 44.2829 30.6375 44.2678 30.6833 44.2522C30.7436 44.2319 30.8039 44.2115 30.8661 44.1906C30.925 44.1706 30.9839 44.1507 31.0446 44.1302C31.113 44.1082 31.1814 44.0862 31.2518 44.0636C31.3361 44.0358 31.4204 44.008 31.5073 43.9794C32.578 43.7148 33.6964 43.9037 34.6454 44.4494C35.5312 45.0251 36.2194 45.8756 36.4572 46.9259C36.5196 47.3232 36.5411 47.725 36.5643 48.1261C36.6342 48.1432 36.7041 48.1604 36.7761 48.178C37.3915 48.3394 37.9175 48.5339 38.4393 48.9074C38.4889 48.9426 38.5384 48.9779 38.5895 49.0142C39.4725 49.7058 39.8274 50.7443 40.0799 51.798C40.1715 51.8151 40.263 51.8322 40.3574 51.8499C41.5548 52.0861 42.5268 52.4891 43.2889 53.4966C43.5598 53.9068 43.7432 54.3055 43.9081 54.7668C43.9584 54.7655 44.0088 54.7643 44.0606 54.763C44.293 54.7581 44.5253 54.7551 44.7577 54.7521C44.8764 54.7492 44.8764 54.7492 44.9976 54.7462C46.1766 54.7348 47.078 55.2125 47.9632 55.967C48.2648 56.2027 48.5676 56.2042 48.9365 56.1999C49.3801 56.142 49.6653 55.895 49.9579 55.5724C50.1189 55.231 50.2009 54.9102 50.1581 54.5324C49.9698 54.0264 49.6601 53.6784 49.2794 53.3057C49.223 53.2492 49.1665 53.1928 49.1084 53.1346C48.9231 52.9495 48.7368 52.7656 48.5504 52.5817C48.4212 52.453 48.292 52.3243 48.1629 52.1955C47.824 51.8578 47.4842 51.5211 47.1441 51.1845C46.7969 50.8405 46.4505 50.4955 46.1041 50.1507C45.4251 49.4749 44.745 48.8002 44.0643 48.1261C44.197 47.8432 44.3542 47.6619 44.5776 47.4413C44.6476 47.3718 44.7176 47.3023 44.7897 47.2307C44.8995 47.1229 44.8995 47.1229 45.0116 47.0128C45.0862 46.939 45.1608 46.8652 45.2353 46.7913C45.4175 46.6109 45.6001 46.4308 45.7831 46.2511C46.0105 46.3539 46.171 46.4638 46.346 46.6411C46.4174 46.7129 46.4174 46.7129 46.4903 46.7861C46.5673 46.8647 46.5673 46.8647 46.6459 46.9449C46.7007 47.0002 46.7555 47.0555 46.8119 47.1124C46.9308 47.2324 47.0495 47.3526 47.1681 47.4729C47.3559 47.6634 47.5442 47.8534 47.7327 48.0432C48.2686 48.5829 48.8037 49.1235 49.338 49.6648C49.6649 49.9959 49.9926 50.3262 50.3208 50.6561C50.4455 50.7819 50.57 50.9079 50.6942 51.0343C50.8681 51.2112 51.043 51.3871 51.218 51.5628C51.2689 51.6151 51.3198 51.6673 51.3722 51.7211C51.7213 52.0688 52.0422 52.3115 52.5479 52.3672C53.0584 52.3187 53.3909 52.1659 53.7518 51.798C54.0265 51.4203 54.0567 51.0016 53.9862 50.548C53.809 50.1048 53.5288 49.8267 53.1933 49.5003C53.1367 49.4443 53.0802 49.3884 53.0219 49.3307C52.8995 49.2098 52.7769 49.089 52.654 48.9686C52.4598 48.7781 52.2663 48.5868 52.0731 48.3952C51.5238 47.8509 50.9731 47.3081 50.4218 46.7658C50.0844 46.4338 49.7479 46.1009 49.412 45.7673C49.2836 45.6403 49.1549 45.5136 49.0258 45.3874C48.8459 45.2114 48.6672 45.0342 48.4887 44.8567C48.4347 44.8045 48.3807 44.7523 48.3251 44.6986C48.2769 44.6502 48.2287 44.6018 48.1791 44.5519C48.1367 44.5102 48.0943 44.4684 48.0506 44.4254C47.9706 44.298 47.9706 44.298 47.9874 44.1371C48.1421 43.7544 48.5281 43.4663 48.8153 43.1798C48.8869 43.1061 48.9584 43.0323 49.0321 42.9563C49.1013 42.887 49.1704 42.8176 49.2416 42.7462C49.305 42.6823 49.3683 42.6184 49.4335 42.5526C49.6112 42.423 49.6112 42.423 49.7626 42.4397C49.9471 42.5101 50.0397 42.5888 50.1781 42.7289C50.2266 42.7775 50.2751 42.826 50.3251 42.876C50.4036 42.9563 50.4036 42.9563 50.4837 43.0382C50.5395 43.0944 50.5953 43.1505 50.6528 43.2084C50.7739 43.3304 50.8948 43.4527 51.0155 43.5753C51.2064 43.7692 51.398 43.9623 51.5898 44.1553C52.0662 44.6348 52.5413 45.1155 53.0164 45.5962C53.4178 46.0022 53.8196 46.4078 54.2221 46.8127C54.411 47.003 54.5991 47.1941 54.7873 47.3852C54.9031 47.5019 55.019 47.6186 55.1349 47.7352C55.2131 47.8152 55.2131 47.8152 55.2929 47.8969C55.6548 48.2589 55.9453 48.4584 56.4715 48.4728C56.9014 48.4632 57.1802 48.328 57.5018 48.048C57.7939 47.7259 57.8617 47.4314 57.9169 47.0135C57.8372 46.3103 57.3044 45.8545 56.8273 45.3849C56.7502 45.3079 56.6732 45.2308 56.5963 45.1537C56.3884 44.9458 56.1797 44.7388 55.9707 44.5321C55.752 44.3153 55.5342 44.0977 55.3163 43.8802C54.9041 43.469 54.4912 43.0586 54.0779 42.6484C53.6072 42.1812 53.1374 41.7132 52.6677 41.245C51.7019 40.2825 50.7351 39.3211 49.7674 38.3605C49.6784 38.3982 49.5894 38.4359 49.4977 38.4748C49.3786 38.5247 49.2594 38.5746 49.1403 38.6245C49.0819 38.6493 49.0235 38.6741 48.9634 38.6997C47.4476 39.3316 45.8006 39.3057 44.2792 38.6974C43.2692 38.2326 42.5091 37.4837 41.7206 36.7199C41.6146 36.6184 41.6146 36.6184 41.5066 36.5148C41.3152 36.3314 41.125 36.1468 40.9356 35.9614C40.8233 35.8519 40.7101 35.7432 40.597 35.6346C40.5287 35.5672 40.4604 35.4997 40.39 35.4302C40.2975 35.34 40.2975 35.34 40.2031 35.248C40.0799 35.0792 40.0799 35.0792 40.0937 34.9317C40.1745 34.7246 40.2815 34.6151 40.4395 34.4588C40.4989 34.3993 40.5583 34.3399 40.6196 34.2787C40.6841 34.2154 40.7486 34.1521 40.8151 34.0868C40.8809 34.0214 40.9467 33.9559 41.0145 33.8885C41.2249 33.6794 41.4361 33.4711 41.6473 33.2628C41.7901 33.1213 41.9327 32.9797 42.0753 32.838C42.4252 32.4907 42.7758 32.1441 43.1268 31.798C43.0533 31.7109 42.9797 31.624 42.9059 31.5372C42.8444 31.4646 42.8444 31.4646 42.7816 31.3905C41.4867 29.9296 39.4765 29.1054 37.5799 28.8292C36.3369 28.7573 35.1 28.7558 33.9081 29.1417ZM30.8368 47.4865C30.79 47.5309 30.7432 47.5752 30.6949 47.6209C30.3312 47.9849 30.0186 48.414 29.9922 48.9445C30.0199 49.4411 30.2184 49.7624 30.5829 50.0988C30.9632 50.3585 31.2575 50.4388 31.7206 50.3918C32.2679 50.1686 32.6248 49.8454 33.034 49.425C33.1219 49.3379 33.1219 49.3379 33.2115 49.2492C33.5579 48.8987 33.8607 48.587 33.9392 48.0822C33.9346 47.6053 33.8989 47.2539 33.5419 46.9027C33.1364 46.5453 32.8867 46.4453 32.3395 46.4559C31.7105 46.5375 31.2741 47.0651 30.8368 47.4865ZM34.4354 51.6222C34.3812 51.6752 34.3271 51.7282 34.2712 51.7827C33.8903 52.1666 33.5901 52.5494 33.4759 53.0874C33.4833 53.5747 33.6003 53.9103 33.9468 54.2595C34.253 54.5268 34.4992 54.6235 34.8993 54.6398C34.9624 54.6436 35.0256 54.6475 35.0906 54.6514C35.7087 54.5384 36.1635 54.0343 36.5887 53.6046C36.6436 53.5514 36.6984 53.4981 36.7549 53.4432C37.1191 53.0786 37.3618 52.7681 37.4548 52.2494C37.4487 51.7678 37.3187 51.4838 37.0135 51.1193C36.6921 50.849 36.3997 50.7231 35.9833 50.6701C35.3177 50.7518 34.8892 51.1581 34.4354 51.6222ZM38.4198 55.3722C38.3656 55.4252 38.3114 55.4782 38.2556 55.5327C37.8504 55.9411 37.5085 56.3627 37.4628 56.9543C37.4886 57.4065 37.6844 57.7652 38.0048 58.0773C38.4313 58.3478 38.7976 58.4334 39.2987 58.3605C39.8038 58.1344 40.1906 57.7388 40.5731 57.3498C40.6279 57.2958 40.6828 57.2419 40.7393 57.1863C41.1241 56.7994 41.4396 56.4426 41.4471 55.8703C41.4331 55.4471 41.2967 55.1598 41.0174 54.8449C40.6408 54.5511 40.3406 54.4239 39.8581 54.433C39.254 54.509 38.8257 54.9571 38.4198 55.3722ZM43.3368 58.1896C43.283 58.2432 43.2291 58.2969 43.1737 58.3521C42.8191 58.7135 42.4807 59.0703 42.3849 59.584C42.3965 60.0565 42.4364 60.408 42.7899 60.7558C43.12 61.0467 43.3185 61.1857 43.7665 61.1974C43.8385 61.2003 43.9105 61.2033 43.9847 61.2063C44.6126 61.1177 45.0247 60.6415 45.451 60.2111C45.51 60.1537 45.5689 60.0964 45.6296 60.0373C46.0382 59.6283 46.2894 59.304 46.3641 58.7169C46.3082 58.2617 46.1375 57.8974 45.7928 57.589C44.8264 56.9319 44.0532 57.4429 43.3368 58.1896Z" fill="black"/>
</g>
<defs>
<clipPath id="clip0_1047_3928">
<rect width="40" height="40" fill="white" transform="translate(25 25)"/>
</clipPath>
</defs>
</svg>
